<?xml version="1.0"?>
<svg xmlns="http://www.w3.org/2000/svg" id="Capa_1" enable-background="new 0 0 512 512" height="512px" viewBox="0 0 512 512" width="512px" class=""><g><g><path d="m406 31h-120c-57.891 0-105 47.109-105 105 0 52.808 39.185 96.636 90 103.931v46.069c0 6.064 3.647 11.543 9.258 13.857 5.533 2.309 12.023 1.071 16.348-3.252l55.605-55.605h53.789c57.891 0 106-47.109 106-105s-48.109-105-106-105zm-120 119.998c-8.286 0-15-6.716-15-15s6.714-15 15-15c8.284 0 15 6.716 15 15s-6.716 15-15 15zm60 0c-8.286 0-15-6.716-15-15s6.714-15 15-15c8.284 0 15 6.716 15 15s-6.716 15-15 15zm60 0c-8.286 0-15-6.716-15-15s6.714-15 15-15c8.284 0 15 6.716 15 15s-6.716 15-15 15z" data-original="#000000" class="active-path" data-old_color="#000000" fill="#FFFFFF"/><path d="m337 481c24.814 0 45-20.186 45-45v-60c0-6.46-4.131-12.188-10.254-14.224l-89.789-30c-4.395-1.479-9.199-.806-13.066 1.743l-38.174 25.444c-40.43-19.277-88.403-67.251-107.681-107.681l25.444-38.174c2.563-3.853 3.208-8.672 1.743-13.066l-30-89.789c-2.035-6.122-7.763-10.253-14.223-10.253h-61c-24.814 0-45 19.975-45 44.789 0 172.822 164.178 336.211 337 336.211z" data-original="#000000" class="active-path" data-old_color="#000000" fill="#FFFFFF"/></g></g> </svg>
