<svg id="Capa_1" data-name="Capa 1" xmlns="http://www.w3.org/2000/svg" viewBox="0 0 512 512"><defs><style>.cls-1{fill:#fff;}</style></defs><title>viber</title><path class="cls-1" d="M256.06,0h-.12C114.78,0,0,114.82,0,256A254.11,254.11,0,0,0,48.74,406.05l-31.91,95.1,98.4-31.45A253.83,253.83,0,0,0,256.06,512C397.22,512,512,397.15,512,256S397.22,0,256.06,0ZM398.69,373.62v.18c-12.35,22.5-35.48,47.35-59.27,39.42l-.23-.35c-24.14-7-81-37.3-116.95-66.88-76.47-62.53-100.46-145.28-113.52-171.25-7.65-24.62,16.27-48.53,38.11-61.31h.23c10.5-5.69,20.61-3.79,27.32,4.62,6.39,8.94,18.94,20.58,37.63,54.35,7,12.9,2.65,26-4.22,31.49l-13.73,11.36c-7,5.79-6,16.57-6,16.57s20.36,79.65,96.47,99.78c0,0,10.43,1,16-6.26l11-14.22c5.25-7.1,17.95-11.59,30.43-4.37h0c16.82,9.82,38.23,25.1,52.43,38.94C402.35,352.43,404.17,362.74,398.69,373.62ZM271.08,147.72c-9.7-.7-8.69-16,1-15.28,66.39,5,101.72,52.18,100.48,109.48-.12,10.18-15,9.7-14.77-.35h0C359,191.39,328.66,152.09,271.08,147.72Zm63.52,80.51c.45,10.18-14.32,10.89-14.78.71-1.26-26-13-38.71-37.3-40.13-9.82-.58-8.91-15.86.81-15.28C315.25,175.3,333,194.24,334.6,228.23Zm62.25,29.32c-.68-96.44-62.81-149-138.24-149.6-9.73-.13-9.73-15.28,0-15.28,84.35.58,152.18,60.84,153,164.76h0C411.75,267.6,396.85,267.73,396.85,257.55Z"/></svg>