<svg width="264" height="329" viewBox="0 0 264 329" fill="none" xmlns="http://www.w3.org/2000/svg">
<g filter="url(#filter0_d)">
<rect x="11" y="16" width="240" height="300" rx="12" fill="#18222D"/>
</g>
<line x1="11" y1="31.5" x2="251" y2="31.5" stroke="#22303F"/>
<line x1="11" y1="102.5" x2="251" y2="102.5" stroke="#22303F"/>
<circle cx="48" cy="68" r="24" fill="#0084FF"/>
<path d="M48 53C39.7162 53 33 59.2175 33 66.8881C33 71.2588 35.1806 75.1569 38.5894 77.7031V83L43.6969 80.1969C45.06 80.5738 46.5038 80.7781 48 80.7781C56.2838 80.7781 63 74.5606 63 66.89C63 59.2194 56.2838 53 48 53ZM49.4906 71.7031L45.6712 67.6288L38.2181 71.7031L46.4175 62.9994L50.3306 67.0738L57.69 62.9994L49.4906 71.7031Z" fill="white"/>
<path d="M89.8945 59.5137H86.5195V63H84.7617V54.4688H90.3164V55.8926H86.5195V58.0957H89.8945V59.5137ZM94.6992 63C94.6211 62.8477 94.5645 62.6582 94.5293 62.4316C94.1191 62.8887 93.5859 63.1172 92.9297 63.1172C92.3086 63.1172 91.793 62.9375 91.3828 62.5781C90.9766 62.2188 90.7734 61.7656 90.7734 61.2188C90.7734 60.5469 91.0215 60.0312 91.5176 59.6719C92.0176 59.3125 92.7383 59.1309 93.6797 59.127H94.459V58.7637C94.459 58.4707 94.3828 58.2363 94.2305 58.0605C94.082 57.8848 93.8457 57.7969 93.5215 57.7969C93.2363 57.7969 93.0117 57.8652 92.8477 58.002C92.6875 58.1387 92.6074 58.3262 92.6074 58.5645H90.9141C90.9141 58.1973 91.0273 57.8574 91.2539 57.5449C91.4805 57.2324 91.8008 56.9883 92.2148 56.8125C92.6289 56.6328 93.0938 56.543 93.6094 56.543C94.3906 56.543 95.0098 56.7402 95.4668 57.1348C95.9277 57.5254 96.1582 58.0762 96.1582 58.7871V61.5352C96.1621 62.1367 96.2461 62.5918 96.4102 62.9004V63H94.6992ZM93.2988 61.8223C93.5488 61.8223 93.7793 61.7676 93.9902 61.6582C94.2012 61.5449 94.3574 61.3945 94.459 61.207V60.1172H93.8262C92.9785 60.1172 92.5273 60.4102 92.4727 60.9961L92.4668 61.0957C92.4668 61.3066 92.541 61.4805 92.6895 61.6172C92.8379 61.7539 93.041 61.8223 93.2988 61.8223ZM100.096 61.752C100.408 61.752 100.662 61.666 100.857 61.4941C101.053 61.3223 101.154 61.0938 101.162 60.8086H102.75C102.746 61.2383 102.629 61.6328 102.398 61.9922C102.168 62.3477 101.852 62.625 101.449 62.8242C101.051 63.0195 100.609 63.1172 100.125 63.1172C99.2188 63.1172 98.5039 62.8301 97.9805 62.2559C97.457 61.6777 97.1953 60.8809 97.1953 59.8652V59.7539C97.1953 58.7773 97.4551 57.998 97.9746 57.416C98.4941 56.834 99.207 56.543 100.113 56.543C100.906 56.543 101.541 56.7695 102.018 57.2227C102.498 57.6719 102.742 58.2715 102.75 59.0215H101.162C101.154 58.6934 101.053 58.4277 100.857 58.2246C100.662 58.0176 100.404 57.9141 100.084 57.9141C99.6895 57.9141 99.3906 58.0586 99.1875 58.3477C98.9883 58.6328 98.8887 59.0977 98.8887 59.7422V59.918C98.8887 60.5703 98.9883 61.0391 99.1875 61.3242C99.3867 61.6094 99.6895 61.752 100.096 61.752ZM106.635 63.1172C105.705 63.1172 104.947 62.832 104.361 62.2617C103.779 61.6914 103.488 60.9316 103.488 59.9824V59.8184C103.488 59.1816 103.611 58.6133 103.857 58.1133C104.104 57.6094 104.451 57.2227 104.9 56.9531C105.354 56.6797 105.869 56.543 106.447 56.543C107.314 56.543 107.996 56.8164 108.492 57.3633C108.992 57.9102 109.242 58.6855 109.242 59.6895V60.3809H105.205C105.26 60.7949 105.424 61.127 105.697 61.377C105.975 61.627 106.324 61.752 106.746 61.752C107.398 61.752 107.908 61.5156 108.275 61.043L109.107 61.9746C108.854 62.334 108.51 62.6152 108.076 62.8184C107.643 63.0176 107.162 63.1172 106.635 63.1172ZM106.441 57.9141C106.105 57.9141 105.832 58.0273 105.621 58.2539C105.414 58.4805 105.281 58.8047 105.223 59.2266H107.578V59.0918C107.57 58.7168 107.469 58.4277 107.273 58.2246C107.078 58.0176 106.801 57.9141 106.441 57.9141ZM115.922 59.8887C115.922 60.9043 115.705 61.6973 115.271 62.2676C114.838 62.834 114.232 63.1172 113.455 63.1172C112.768 63.1172 112.219 62.8535 111.809 62.3262L111.732 63H110.209V54H111.902V57.2285C112.293 56.7715 112.807 56.543 113.443 56.543C114.217 56.543 114.822 56.8281 115.26 57.3984C115.701 57.9648 115.922 58.7637 115.922 59.7949V59.8887ZM114.229 59.7656C114.229 59.125 114.127 58.6582 113.924 58.3652C113.721 58.0684 113.418 57.9199 113.016 57.9199C112.477 57.9199 112.105 58.1406 111.902 58.582V61.084C112.109 61.5293 112.484 61.752 113.027 61.752C113.574 61.752 113.934 61.4824 114.105 60.9434C114.188 60.6855 114.229 60.293 114.229 59.7656ZM116.707 59.7715C116.707 59.1426 116.828 58.582 117.07 58.0898C117.312 57.5977 117.66 57.2168 118.113 56.9473C118.57 56.6777 119.1 56.543 119.701 56.543C120.557 56.543 121.254 56.8047 121.793 57.3281C122.336 57.8516 122.639 58.5625 122.701 59.4609L122.713 59.8945C122.713 60.8672 122.441 61.6484 121.898 62.2383C121.355 62.8242 120.627 63.1172 119.713 63.1172C118.799 63.1172 118.068 62.8242 117.521 62.2383C116.979 61.6523 116.707 60.8555 116.707 59.8477V59.7715ZM118.4 59.8945C118.4 60.4961 118.514 60.957 118.74 61.2773C118.967 61.5938 119.291 61.752 119.713 61.752C120.123 61.752 120.443 61.5957 120.674 61.2832C120.904 60.9668 121.02 60.4629 121.02 59.7715C121.02 59.1816 120.904 58.7246 120.674 58.4004C120.443 58.0762 120.119 57.9141 119.701 57.9141C119.287 57.9141 118.967 58.0762 118.74 58.4004C118.514 58.7207 118.4 59.2188 118.4 59.8945ZM123.492 59.7715C123.492 59.1426 123.613 58.582 123.855 58.0898C124.098 57.5977 124.445 57.2168 124.898 56.9473C125.355 56.6777 125.885 56.543 126.486 56.543C127.342 56.543 128.039 56.8047 128.578 57.3281C129.121 57.8516 129.424 58.5625 129.486 59.4609L129.498 59.8945C129.498 60.8672 129.227 61.6484 128.684 62.2383C128.141 62.8242 127.412 63.1172 126.498 63.1172C125.584 63.1172 124.854 62.8242 124.307 62.2383C123.764 61.6523 123.492 60.8555 123.492 59.8477V59.7715ZM125.186 59.8945C125.186 60.4961 125.299 60.957 125.525 61.2773C125.752 61.5938 126.076 61.752 126.498 61.752C126.908 61.752 127.229 61.5957 127.459 61.2832C127.689 60.9668 127.805 60.4629 127.805 59.7715C127.805 59.1816 127.689 58.7246 127.459 58.4004C127.229 58.0762 126.904 57.9141 126.486 57.9141C126.072 57.9141 125.752 58.0762 125.525 58.4004C125.299 58.7207 125.186 59.2188 125.186 59.8945ZM132.844 60.457L132.234 61.0664V63H130.541V54H132.234V58.9863L132.562 58.5645L134.186 56.6602H136.219L133.928 59.3027L136.418 63H134.473L132.844 60.457ZM142.348 54.4688L144.539 60.6562L146.719 54.4688H149.027V63H147.264V60.668L147.439 56.6426L145.137 63H143.93L141.633 56.6484L141.809 60.668V63H140.051V54.4688H142.348ZM153.369 63.1172C152.439 63.1172 151.682 62.832 151.096 62.2617C150.514 61.6914 150.223 60.9316 150.223 59.9824V59.8184C150.223 59.1816 150.346 58.6133 150.592 58.1133C150.838 57.6094 151.186 57.2227 151.635 56.9531C152.088 56.6797 152.604 56.543 153.182 56.543C154.049 56.543 154.73 56.8164 155.227 57.3633C155.727 57.9102 155.977 58.6855 155.977 59.6895V60.3809H151.939C151.994 60.7949 152.158 61.127 152.432 61.377C152.709 61.627 153.059 61.752 153.48 61.752C154.133 61.752 154.643 61.5156 155.01 61.043L155.842 61.9746C155.588 62.334 155.244 62.6152 154.811 62.8184C154.377 63.0176 153.896 63.1172 153.369 63.1172ZM153.176 57.9141C152.84 57.9141 152.566 58.0273 152.355 58.2539C152.148 58.4805 152.016 58.8047 151.957 59.2266H154.312V59.0918C154.305 58.7168 154.203 58.4277 154.008 58.2246C153.812 58.0176 153.535 57.9141 153.176 57.9141ZM160.377 61.248C160.377 61.041 160.273 60.8789 160.066 60.7617C159.863 60.6406 159.535 60.5332 159.082 60.4395C157.574 60.123 156.82 59.4824 156.82 58.5176C156.82 57.9551 157.053 57.4863 157.518 57.1113C157.986 56.7324 158.598 56.543 159.352 56.543C160.156 56.543 160.799 56.7324 161.279 57.1113C161.764 57.4902 162.006 57.9824 162.006 58.5879H160.312C160.312 58.3457 160.234 58.1465 160.078 57.9902C159.922 57.8301 159.678 57.75 159.346 57.75C159.061 57.75 158.84 57.8145 158.684 57.9434C158.527 58.0723 158.449 58.2363 158.449 58.4355C158.449 58.623 158.537 58.7754 158.713 58.8926C158.893 59.0059 159.193 59.1055 159.615 59.1914C160.037 59.2734 160.393 59.3672 160.682 59.4727C161.576 59.8008 162.023 60.3691 162.023 61.1777C162.023 61.7559 161.775 62.2246 161.279 62.584C160.783 62.9395 160.143 63.1172 159.357 63.1172C158.826 63.1172 158.354 63.0234 157.939 62.8359C157.529 62.6445 157.207 62.3848 156.973 62.0566C156.738 61.7246 156.621 61.3672 156.621 60.9844H158.227C158.242 61.2852 158.354 61.5156 158.561 61.6758C158.768 61.8359 159.045 61.916 159.393 61.916C159.717 61.916 159.961 61.8555 160.125 61.7344C160.293 61.6094 160.377 61.4473 160.377 61.248ZM166.553 61.248C166.553 61.041 166.449 60.8789 166.242 60.7617C166.039 60.6406 165.711 60.5332 165.258 60.4395C163.75 60.123 162.996 59.4824 162.996 58.5176C162.996 57.9551 163.229 57.4863 163.693 57.1113C164.162 56.7324 164.773 56.543 165.527 56.543C166.332 56.543 166.975 56.7324 167.455 57.1113C167.939 57.4902 168.182 57.9824 168.182 58.5879H166.488C166.488 58.3457 166.41 58.1465 166.254 57.9902C166.098 57.8301 165.854 57.75 165.521 57.75C165.236 57.75 165.016 57.8145 164.859 57.9434C164.703 58.0723 164.625 58.2363 164.625 58.4355C164.625 58.623 164.713 58.7754 164.889 58.8926C165.068 59.0059 165.369 59.1055 165.791 59.1914C166.213 59.2734 166.568 59.3672 166.857 59.4727C167.752 59.8008 168.199 60.3691 168.199 61.1777C168.199 61.7559 167.951 62.2246 167.455 62.584C166.959 62.9395 166.318 63.1172 165.533 63.1172C165.002 63.1172 164.529 63.0234 164.115 62.8359C163.705 62.6445 163.383 62.3848 163.148 62.0566C162.914 61.7246 162.797 61.3672 162.797 60.9844H164.402C164.418 61.2852 164.529 61.5156 164.736 61.6758C164.943 61.8359 165.221 61.916 165.568 61.916C165.893 61.916 166.137 61.8555 166.301 61.7344C166.469 61.6094 166.553 61.4473 166.553 61.248ZM172.213 63.1172C171.283 63.1172 170.525 62.832 169.939 62.2617C169.357 61.6914 169.066 60.9316 169.066 59.9824V59.8184C169.066 59.1816 169.189 58.6133 169.436 58.1133C169.682 57.6094 170.029 57.2227 170.479 56.9531C170.932 56.6797 171.447 56.543 172.025 56.543C172.893 56.543 173.574 56.8164 174.07 57.3633C174.57 57.9102 174.82 58.6855 174.82 59.6895V60.3809H170.783C170.838 60.7949 171.002 61.127 171.275 61.377C171.553 61.627 171.902 61.752 172.324 61.752C172.977 61.752 173.486 61.5156 173.854 61.043L174.686 61.9746C174.432 62.334 174.088 62.6152 173.654 62.8184C173.221 63.0176 172.74 63.1172 172.213 63.1172ZM172.02 57.9141C171.684 57.9141 171.41 58.0273 171.199 58.2539C170.992 58.4805 170.859 58.8047 170.801 59.2266H173.156V59.0918C173.148 58.7168 173.047 58.4277 172.852 58.2246C172.656 58.0176 172.379 57.9141 172.02 57.9141ZM177.346 56.6602L177.398 57.3926C177.852 56.8262 178.459 56.543 179.221 56.543C179.893 56.543 180.393 56.7402 180.721 57.1348C181.049 57.5293 181.217 58.1191 181.225 58.9043V63H179.531V58.9453C179.531 58.5859 179.453 58.3262 179.297 58.166C179.141 58.002 178.881 57.9199 178.518 57.9199C178.041 57.9199 177.684 58.123 177.445 58.5293V63H175.752V56.6602H177.346ZM182.268 59.7832C182.268 58.8105 182.498 58.0273 182.959 57.4336C183.424 56.8398 184.049 56.543 184.834 56.543C185.529 56.543 186.07 56.7812 186.457 57.2578L186.527 56.6602H188.062V62.7891C188.062 63.3438 187.936 63.8262 187.682 64.2363C187.432 64.6465 187.078 64.959 186.621 65.1738C186.164 65.3887 185.629 65.4961 185.016 65.4961C184.551 65.4961 184.098 65.4023 183.656 65.2148C183.215 65.0312 182.881 64.793 182.654 64.5L183.404 63.4688C183.826 63.9414 184.338 64.1777 184.939 64.1777C185.389 64.1777 185.738 64.0566 185.988 63.8145C186.238 63.5762 186.363 63.2363 186.363 62.7949V62.4551C185.973 62.8965 185.459 63.1172 184.822 63.1172C184.061 63.1172 183.443 62.8203 182.971 62.2266C182.502 61.6289 182.268 60.8379 182.268 59.8535V59.7832ZM183.961 59.9062C183.961 60.4805 184.076 60.9316 184.307 61.2598C184.537 61.584 184.854 61.7461 185.256 61.7461C185.771 61.7461 186.141 61.5527 186.363 61.166V58.5C186.137 58.1133 185.771 57.9199 185.268 57.9199C184.861 57.9199 184.541 58.0859 184.307 58.418C184.076 58.75 183.961 59.2461 183.961 59.9062ZM192.287 63.1172C191.357 63.1172 190.6 62.832 190.014 62.2617C189.432 61.6914 189.141 60.9316 189.141 59.9824V59.8184C189.141 59.1816 189.264 58.6133 189.51 58.1133C189.756 57.6094 190.104 57.2227 190.553 56.9531C191.006 56.6797 191.521 56.543 192.1 56.543C192.967 56.543 193.648 56.8164 194.145 57.3633C194.645 57.9102 194.895 58.6855 194.895 59.6895V60.3809H190.857C190.912 60.7949 191.076 61.127 191.35 61.377C191.627 61.627 191.977 61.752 192.398 61.752C193.051 61.752 193.561 61.5156 193.928 61.043L194.76 61.9746C194.506 62.334 194.162 62.6152 193.729 62.8184C193.295 63.0176 192.814 63.1172 192.287 63.1172ZM192.094 57.9141C191.758 57.9141 191.484 58.0273 191.273 58.2539C191.066 58.4805 190.934 58.8047 190.875 59.2266H193.23V59.0918C193.223 58.7168 193.121 58.4277 192.926 58.2246C192.73 58.0176 192.453 57.9141 192.094 57.9141ZM199.424 58.248C199.193 58.2168 198.99 58.2012 198.814 58.2012C198.174 58.2012 197.754 58.418 197.555 58.8516V63H195.861V56.6602H197.461L197.508 57.416C197.848 56.834 198.318 56.543 198.92 56.543C199.107 56.543 199.283 56.5684 199.447 56.6191L199.424 58.248Z" fill="white"/>
<path d="M88.1191 77.5488H86.1152V81H84.9844V72.4688H87.8086C88.7695 72.4688 89.5078 72.6875 90.0234 73.125C90.543 73.5625 90.8027 74.1992 90.8027 75.0352C90.8027 75.5664 90.6582 76.0293 90.3691 76.4238C90.084 76.8184 89.6855 77.1133 89.1738 77.3086L91.1777 80.9297V81H89.9707L88.1191 77.5488ZM86.1152 76.6289H87.8438C88.4023 76.6289 88.8457 76.4844 89.1738 76.1953C89.5059 75.9062 89.6719 75.5195 89.6719 75.0352C89.6719 74.5078 89.5137 74.1035 89.1973 73.8223C88.8848 73.541 88.4316 73.3984 87.8379 73.3945H86.1152V76.6289ZM94.8457 81.1172C93.9863 81.1172 93.2871 80.8359 92.748 80.2734C92.209 79.707 91.9395 78.9512 91.9395 78.0059V77.8066C91.9395 77.1777 92.0586 76.6172 92.2969 76.125C92.5391 75.6289 92.875 75.2422 93.3047 74.9648C93.7383 74.6836 94.207 74.543 94.7109 74.543C95.5352 74.543 96.1758 74.8145 96.6328 75.3574C97.0898 75.9004 97.3184 76.6777 97.3184 77.6895V78.1406H93.0234C93.0391 78.7656 93.2207 79.2715 93.5684 79.6582C93.9199 80.041 94.3652 80.2324 94.9043 80.2324C95.2871 80.2324 95.6113 80.1543 95.877 79.998C96.1426 79.8418 96.375 79.6348 96.5742 79.377L97.2363 79.8926C96.7051 80.709 95.9082 81.1172 94.8457 81.1172ZM94.7109 75.4336C94.2734 75.4336 93.9062 75.5938 93.6094 75.9141C93.3125 76.2305 93.1289 76.6758 93.0586 77.25H96.2344V77.168C96.2031 76.6172 96.0547 76.1914 95.7891 75.8906C95.5234 75.5859 95.1641 75.4336 94.7109 75.4336ZM103.934 77.9004C103.934 78.8652 103.713 79.6426 103.271 80.2324C102.83 80.8223 102.232 81.1172 101.479 81.1172C100.709 81.1172 100.104 80.873 99.6621 80.3848V83.4375H98.5781V74.6602H99.5684L99.6211 75.3633C100.062 74.8164 100.676 74.543 101.461 74.543C102.223 74.543 102.824 74.8301 103.266 75.4043C103.711 75.9785 103.934 76.7773 103.934 77.8008V77.9004ZM102.85 77.7773C102.85 77.0625 102.697 76.498 102.393 76.084C102.088 75.6699 101.67 75.4629 101.139 75.4629C100.482 75.4629 99.9902 75.7539 99.6621 76.3359V79.3652C99.9863 79.9434 100.482 80.2324 101.15 80.2324C101.67 80.2324 102.082 80.0273 102.387 79.6172C102.695 79.2031 102.85 78.5898 102.85 77.7773ZM106.494 81H105.41V72H106.494V81ZM110.309 79.4121L111.785 74.6602H112.945L110.396 81.9785C110.002 83.0332 109.375 83.5605 108.516 83.5605L108.311 83.543L107.906 83.4668V82.5879L108.199 82.6113C108.566 82.6113 108.852 82.5371 109.055 82.3887C109.262 82.2402 109.432 81.9688 109.564 81.5742L109.805 80.9297L107.543 74.6602H108.727L110.309 79.4121ZM122.508 79.5059L123.727 74.6602H124.811L122.965 81H122.086L120.545 76.1953L119.045 81H118.166L116.326 74.6602H117.404L118.652 79.4062L120.129 74.6602H121.002L122.508 79.5059ZM127.096 81H126.012V74.6602H127.096V81ZM125.924 72.9785C125.924 72.8027 125.977 72.6543 126.082 72.5332C126.191 72.4121 126.352 72.3516 126.562 72.3516C126.773 72.3516 126.934 72.4121 127.043 72.5332C127.152 72.6543 127.207 72.8027 127.207 72.9785C127.207 73.1543 127.152 73.3008 127.043 73.418C126.934 73.5352 126.773 73.5938 126.562 73.5938C126.352 73.5938 126.191 73.5352 126.082 73.418C125.977 73.3008 125.924 73.1543 125.924 72.9785ZM130.307 73.125V74.6602H131.49V75.498H130.307V79.4297C130.307 79.6836 130.359 79.875 130.465 80.0039C130.57 80.1289 130.75 80.1914 131.004 80.1914C131.129 80.1914 131.301 80.168 131.52 80.1211V81C131.234 81.0781 130.957 81.1172 130.688 81.1172C130.203 81.1172 129.838 80.9707 129.592 80.6777C129.346 80.3848 129.223 79.9688 129.223 79.4297V75.498H128.068V74.6602H129.223V73.125H130.307ZM133.846 75.4277C134.326 74.8379 134.951 74.543 135.721 74.543C137.061 74.543 137.736 75.2988 137.748 76.8105V81H136.664V76.8047C136.66 76.3477 136.555 76.0098 136.348 75.791C136.145 75.5723 135.826 75.4629 135.393 75.4629C135.041 75.4629 134.732 75.5566 134.467 75.7441C134.201 75.9316 133.994 76.1777 133.846 76.4824V81H132.762V72H133.846V75.4277ZM140.549 81H139.465V74.6602H140.549V81ZM139.377 72.9785C139.377 72.8027 139.43 72.6543 139.535 72.5332C139.645 72.4121 139.805 72.3516 140.016 72.3516C140.227 72.3516 140.387 72.4121 140.496 72.5332C140.605 72.6543 140.66 72.8027 140.66 72.9785C140.66 73.1543 140.605 73.3008 140.496 73.418C140.387 73.5352 140.227 73.5938 140.016 73.5938C139.805 73.5938 139.645 73.5352 139.535 73.418C139.43 73.3008 139.377 73.1543 139.377 72.9785ZM143.314 74.6602L143.35 75.457C143.834 74.8477 144.467 74.543 145.248 74.543C146.588 74.543 147.264 75.2988 147.275 76.8105V81H146.191V76.8047C146.188 76.3477 146.082 76.0098 145.875 75.791C145.672 75.5723 145.354 75.4629 144.92 75.4629C144.568 75.4629 144.26 75.5566 143.994 75.7441C143.729 75.9316 143.521 76.1777 143.373 76.4824V81H142.289V74.6602H143.314ZM157.365 81H151.775V80.2207L154.729 76.9395C155.166 76.4434 155.467 76.041 155.631 75.7324C155.799 75.4199 155.883 75.0977 155.883 74.7656C155.883 74.3203 155.748 73.9551 155.479 73.6699C155.209 73.3848 154.85 73.2422 154.4 73.2422C153.861 73.2422 153.441 73.3965 153.141 73.7051C152.844 74.0098 152.695 74.4355 152.695 74.9824H151.611C151.611 74.1973 151.863 73.5625 152.367 73.0781C152.875 72.5938 153.553 72.3516 154.4 72.3516C155.193 72.3516 155.82 72.5605 156.281 72.9785C156.742 73.3926 156.973 73.9453 156.973 74.6367C156.973 75.4766 156.438 76.4766 155.367 77.6367L153.082 80.1152H157.365V81ZM162.686 75.4277C163.166 74.8379 163.791 74.543 164.561 74.543C165.9 74.543 166.576 75.2988 166.588 76.8105V81H165.504V76.8047C165.5 76.3477 165.395 76.0098 165.188 75.791C164.984 75.5723 164.666 75.4629 164.232 75.4629C163.881 75.4629 163.572 75.5566 163.307 75.7441C163.041 75.9316 162.834 76.1777 162.686 76.4824V81H161.602V72H162.686V75.4277ZM167.924 77.7715C167.924 77.1504 168.045 76.5918 168.287 76.0957C168.533 75.5996 168.873 75.2168 169.307 74.9473C169.744 74.6777 170.242 74.543 170.801 74.543C171.664 74.543 172.361 74.8418 172.893 75.4395C173.428 76.0371 173.695 76.832 173.695 77.8242V77.9004C173.695 78.5176 173.576 79.0723 173.338 79.5645C173.104 80.0527 172.766 80.4336 172.324 80.707C171.887 80.9805 171.383 81.1172 170.812 81.1172C169.953 81.1172 169.256 80.8184 168.721 80.2207C168.189 79.623 167.924 78.832 167.924 77.8477V77.7715ZM169.014 77.9004C169.014 78.6035 169.176 79.168 169.5 79.5938C169.828 80.0195 170.266 80.2324 170.812 80.2324C171.363 80.2324 171.801 80.0176 172.125 79.5879C172.449 79.1543 172.611 78.5488 172.611 77.7715C172.611 77.0762 172.445 76.5137 172.113 76.084C171.785 75.6504 171.348 75.4336 170.801 75.4336C170.266 75.4336 169.834 75.6465 169.506 76.0723C169.178 76.498 169.014 77.1074 169.014 77.9004ZM178.969 80.373C178.547 80.8691 177.928 81.1172 177.111 81.1172C176.436 81.1172 175.92 80.9219 175.564 80.5312C175.213 80.1367 175.035 79.5547 175.031 78.7852V74.6602H176.115V78.7559C176.115 79.7168 176.506 80.1973 177.287 80.1973C178.115 80.1973 178.666 79.8887 178.939 79.2715V74.6602H180.023V81H178.992L178.969 80.373ZM184.74 75.6328C184.576 75.6055 184.398 75.5918 184.207 75.5918C183.496 75.5918 183.014 75.8945 182.76 76.5V81H181.676V74.6602H182.73L182.748 75.3926C183.104 74.8262 183.607 74.543 184.26 74.543C184.471 74.543 184.631 74.5703 184.74 74.625V75.6328ZM189.434 79.3184C189.434 79.0254 189.322 78.7988 189.1 78.6387C188.881 78.4746 188.496 78.334 187.945 78.2168C187.398 78.0996 186.963 77.959 186.639 77.7949C186.318 77.6309 186.08 77.4355 185.924 77.209C185.771 76.9824 185.695 76.7129 185.695 76.4004C185.695 75.8809 185.914 75.4414 186.352 75.082C186.793 74.7227 187.355 74.543 188.039 74.543C188.758 74.543 189.34 74.7285 189.785 75.0996C190.234 75.4707 190.459 75.9453 190.459 76.5234H189.369C189.369 76.2266 189.242 75.9707 188.988 75.7559C188.738 75.541 188.422 75.4336 188.039 75.4336C187.645 75.4336 187.336 75.5195 187.113 75.6914C186.891 75.8633 186.779 76.0879 186.779 76.3652C186.779 76.627 186.883 76.8242 187.09 76.957C187.297 77.0898 187.67 77.2168 188.209 77.3379C188.752 77.459 189.191 77.6035 189.527 77.7715C189.863 77.9395 190.111 78.1426 190.271 78.3809C190.436 78.6152 190.518 78.9023 190.518 79.2422C190.518 79.8086 190.291 80.2637 189.838 80.6074C189.385 80.9473 188.797 81.1172 188.074 81.1172C187.566 81.1172 187.117 81.0273 186.727 80.8477C186.336 80.668 186.029 80.418 185.807 80.0977C185.588 79.7734 185.479 79.4238 185.479 79.0488H186.562C186.582 79.4121 186.727 79.7012 186.996 79.916C187.27 80.127 187.629 80.2324 188.074 80.2324C188.484 80.2324 188.812 80.1504 189.059 79.9863C189.309 79.8184 189.434 79.5957 189.434 79.3184Z" fill="#AFC0D1"/>
<line x1="11" y1="102.5" x2="251" y2="102.5" stroke="#22303F"/>
<line x1="11" y1="173.5" x2="251" y2="173.5" stroke="#22303F"/>
<circle cx="48" cy="139" r="24" fill="#25D366"/>
<path d="M48.0037 124H47.9963C39.7256 124 33 130.727 33 139C33 142.281 34.0575 145.323 35.8556 147.792L33.9863 153.364L39.7519 151.521C42.1238 153.093 44.9531 154 48.0037 154C56.2744 154 63 147.271 63 139C63 130.729 56.2744 124 48.0037 124ZM56.7319 145.182C56.37 146.204 54.9337 147.051 53.7881 147.299C53.0044 147.466 51.9806 147.599 48.5344 146.17C44.1262 144.344 41.2875 139.864 41.0663 139.574C40.8544 139.283 39.285 137.202 39.285 135.049C39.285 132.897 40.3781 131.849 40.8188 131.399C41.1806 131.029 41.7787 130.861 42.3525 130.861C42.5381 130.861 42.705 130.87 42.855 130.877C43.2956 130.896 43.5169 130.923 43.8075 131.618C44.1694 132.49 45.0506 134.643 45.1556 134.864C45.2625 135.085 45.3694 135.385 45.2194 135.676C45.0788 135.976 44.955 136.109 44.7337 136.364C44.5125 136.619 44.3025 136.814 44.0812 137.088C43.8787 137.326 43.65 137.581 43.905 138.021C44.16 138.453 45.0412 139.891 46.3387 141.046C48.0131 142.536 49.3706 143.013 49.8562 143.215C50.2181 143.365 50.6494 143.329 50.9137 143.048C51.2494 142.686 51.6637 142.086 52.0856 141.496C52.3856 141.072 52.7644 141.019 53.1619 141.169C53.5669 141.31 55.71 142.369 56.1506 142.589C56.5913 142.81 56.8819 142.915 56.9887 143.101C57.0937 143.286 57.0937 144.158 56.7319 145.182Z" fill="white"/>
<path d="M91.4062 131.539L92.5547 125.469H94.3066L92.4141 134H90.6445L89.2559 128.293L87.8672 134H86.0977L84.2051 125.469H85.957L87.1113 131.527L88.5176 125.469H90.0059L91.4062 131.539ZM96.8027 128.352C97.252 127.812 97.8164 127.543 98.4961 127.543C99.8711 127.543 100.568 128.342 100.588 129.939V134H98.8945V129.986C98.8945 129.623 98.8164 129.355 98.6602 129.184C98.5039 129.008 98.2441 128.92 97.8809 128.92C97.3848 128.92 97.0254 129.111 96.8027 129.494V134H95.1094V125H96.8027V128.352ZM105.539 134C105.461 133.848 105.404 133.658 105.369 133.432C104.959 133.889 104.426 134.117 103.77 134.117C103.148 134.117 102.633 133.938 102.223 133.578C101.816 133.219 101.613 132.766 101.613 132.219C101.613 131.547 101.861 131.031 102.357 130.672C102.857 130.312 103.578 130.131 104.52 130.127H105.299V129.764C105.299 129.471 105.223 129.236 105.07 129.061C104.922 128.885 104.686 128.797 104.361 128.797C104.076 128.797 103.852 128.865 103.688 129.002C103.527 129.139 103.447 129.326 103.447 129.564H101.754C101.754 129.197 101.867 128.857 102.094 128.545C102.32 128.232 102.641 127.988 103.055 127.812C103.469 127.633 103.934 127.543 104.449 127.543C105.23 127.543 105.85 127.74 106.307 128.135C106.768 128.525 106.998 129.076 106.998 129.787V132.535C107.002 133.137 107.086 133.592 107.25 133.9V134H105.539ZM104.139 132.822C104.389 132.822 104.619 132.768 104.83 132.658C105.041 132.545 105.197 132.395 105.299 132.207V131.117H104.666C103.818 131.117 103.367 131.41 103.312 131.996L103.307 132.096C103.307 132.307 103.381 132.48 103.529 132.617C103.678 132.754 103.881 132.822 104.139 132.822ZM110.326 126.102V127.66H111.41V128.902H110.326V132.066C110.326 132.301 110.371 132.469 110.461 132.57C110.551 132.672 110.723 132.723 110.977 132.723C111.164 132.723 111.33 132.709 111.475 132.682V133.965C111.143 134.066 110.801 134.117 110.449 134.117C109.262 134.117 108.656 133.518 108.633 132.318V128.902H107.707V127.66H108.633V126.102H110.326ZM115.787 132.248C115.787 132.041 115.684 131.879 115.477 131.762C115.273 131.641 114.945 131.533 114.492 131.439C112.984 131.123 112.23 130.482 112.23 129.518C112.23 128.955 112.463 128.486 112.928 128.111C113.396 127.732 114.008 127.543 114.762 127.543C115.566 127.543 116.209 127.732 116.689 128.111C117.174 128.49 117.416 128.982 117.416 129.588H115.723C115.723 129.346 115.645 129.146 115.488 128.99C115.332 128.83 115.088 128.75 114.756 128.75C114.471 128.75 114.25 128.814 114.094 128.943C113.938 129.072 113.859 129.236 113.859 129.436C113.859 129.623 113.947 129.775 114.123 129.893C114.303 130.006 114.604 130.105 115.025 130.191C115.447 130.273 115.803 130.367 116.092 130.473C116.986 130.801 117.434 131.369 117.434 132.178C117.434 132.756 117.186 133.225 116.689 133.584C116.193 133.939 115.553 134.117 114.768 134.117C114.236 134.117 113.764 134.023 113.35 133.836C112.939 133.645 112.617 133.385 112.383 133.057C112.148 132.725 112.031 132.367 112.031 131.984H113.637C113.652 132.285 113.764 132.516 113.971 132.676C114.178 132.836 114.455 132.916 114.803 132.916C115.127 132.916 115.371 132.855 115.535 132.734C115.703 132.609 115.787 132.447 115.787 132.248ZM123.457 132.242H120.375L119.789 134H117.92L121.096 125.469H122.725L125.918 134H124.049L123.457 132.242ZM120.85 130.818H122.982L121.91 127.625L120.85 130.818ZM132.029 130.889C132.029 131.865 131.807 132.648 131.361 133.238C130.92 133.824 130.322 134.117 129.568 134.117C128.928 134.117 128.41 133.895 128.016 133.449V136.438H126.322V127.66H127.893L127.951 128.281C128.361 127.789 128.896 127.543 129.557 127.543C130.338 127.543 130.945 127.832 131.379 128.41C131.812 128.988 132.029 129.785 132.029 130.801V130.889ZM130.336 130.766C130.336 130.176 130.23 129.721 130.02 129.4C129.812 129.08 129.51 128.92 129.111 128.92C128.58 128.92 128.215 129.123 128.016 129.529V132.125C128.223 132.543 128.592 132.752 129.123 132.752C129.932 132.752 130.336 132.09 130.336 130.766ZM138.791 130.889C138.791 131.865 138.568 132.648 138.123 133.238C137.682 133.824 137.084 134.117 136.33 134.117C135.689 134.117 135.172 133.895 134.777 133.449V136.438H133.084V127.66H134.654L134.713 128.281C135.123 127.789 135.658 127.543 136.318 127.543C137.1 127.543 137.707 127.832 138.141 128.41C138.574 128.988 138.791 129.785 138.791 130.801V130.889ZM137.098 130.766C137.098 130.176 136.992 129.721 136.781 129.4C136.574 129.08 136.271 128.92 135.873 128.92C135.342 128.92 134.977 129.123 134.777 129.529V132.125C134.984 132.543 135.354 132.752 135.885 132.752C136.693 132.752 137.098 132.09 137.098 130.766Z" fill="white"/>
<path d="M86.8301 149.311L86.9941 150.436L87.2344 149.422L88.9219 143.469H89.8711L91.5176 149.422L91.752 150.453L91.9336 149.305L93.2578 143.469H94.3887L92.3203 152H91.2949L89.5371 145.783L89.4023 145.133L89.2676 145.783L87.4453 152H86.4199L84.3574 143.469H85.4824L86.8301 149.311ZM98.4082 146.633C98.2441 146.605 98.0664 146.592 97.875 146.592C97.1641 146.592 96.6816 146.895 96.4277 147.5V152H95.3438V145.66H96.3984L96.416 146.393C96.7715 145.826 97.2754 145.543 97.9277 145.543C98.1387 145.543 98.2988 145.57 98.4082 145.625V146.633ZM100.588 152H99.5039V145.66H100.588V152ZM99.416 143.979C99.416 143.803 99.4688 143.654 99.5742 143.533C99.6836 143.412 99.8438 143.352 100.055 143.352C100.266 143.352 100.426 143.412 100.535 143.533C100.645 143.654 100.699 143.803 100.699 143.979C100.699 144.154 100.645 144.301 100.535 144.418C100.426 144.535 100.266 144.594 100.055 144.594C99.8438 144.594 99.6836 144.535 99.5742 144.418C99.4688 144.301 99.416 144.154 99.416 143.979ZM103.799 144.125V145.66H104.982V146.498H103.799V150.43C103.799 150.684 103.852 150.875 103.957 151.004C104.062 151.129 104.242 151.191 104.496 151.191C104.621 151.191 104.793 151.168 105.012 151.121V152C104.727 152.078 104.449 152.117 104.18 152.117C103.695 152.117 103.33 151.971 103.084 151.678C102.838 151.385 102.715 150.969 102.715 150.43V146.498H101.561V145.66H102.715V144.125H103.799ZM108.885 152.117C108.025 152.117 107.326 151.836 106.787 151.273C106.248 150.707 105.979 149.951 105.979 149.006V148.807C105.979 148.178 106.098 147.617 106.336 147.125C106.578 146.629 106.914 146.242 107.344 145.965C107.777 145.684 108.246 145.543 108.75 145.543C109.574 145.543 110.215 145.814 110.672 146.357C111.129 146.9 111.357 147.678 111.357 148.689V149.141H107.062C107.078 149.766 107.26 150.271 107.607 150.658C107.959 151.041 108.404 151.232 108.943 151.232C109.326 151.232 109.65 151.154 109.916 150.998C110.182 150.842 110.414 150.635 110.613 150.377L111.275 150.893C110.744 151.709 109.947 152.117 108.885 152.117ZM108.75 146.434C108.312 146.434 107.945 146.594 107.648 146.914C107.352 147.23 107.168 147.676 107.098 148.25H110.273V148.168C110.242 147.617 110.094 147.191 109.828 146.891C109.562 146.586 109.203 146.434 108.75 146.434ZM119.508 152C119.445 151.875 119.395 151.652 119.355 151.332C118.852 151.855 118.25 152.117 117.551 152.117C116.926 152.117 116.412 151.941 116.01 151.59C115.611 151.234 115.412 150.785 115.412 150.242C115.412 149.582 115.662 149.07 116.162 148.707C116.666 148.34 117.373 148.156 118.283 148.156H119.338V147.658C119.338 147.279 119.225 146.979 118.998 146.756C118.771 146.529 118.438 146.416 117.996 146.416C117.609 146.416 117.285 146.514 117.023 146.709C116.762 146.904 116.631 147.141 116.631 147.418H115.541C115.541 147.102 115.652 146.797 115.875 146.504C116.102 146.207 116.406 145.973 116.789 145.801C117.176 145.629 117.6 145.543 118.061 145.543C118.791 145.543 119.363 145.727 119.777 146.094C120.191 146.457 120.406 146.959 120.422 147.6V150.518C120.422 151.1 120.496 151.562 120.645 151.906V152H119.508ZM117.709 151.174C118.049 151.174 118.371 151.086 118.676 150.91C118.98 150.734 119.201 150.506 119.338 150.225V148.924H118.488C117.16 148.924 116.496 149.312 116.496 150.09C116.496 150.43 116.609 150.695 116.836 150.887C117.062 151.078 117.354 151.174 117.709 151.174ZM126.117 145.66L126.146 146.363C126.611 145.816 127.238 145.543 128.027 145.543C128.914 145.543 129.518 145.883 129.838 146.562C130.049 146.258 130.322 146.012 130.658 145.824C130.998 145.637 131.398 145.543 131.859 145.543C133.25 145.543 133.957 146.279 133.98 147.752V152H132.896V147.816C132.896 147.363 132.793 147.025 132.586 146.803C132.379 146.576 132.031 146.463 131.543 146.463C131.141 146.463 130.807 146.584 130.541 146.826C130.275 147.064 130.121 147.387 130.078 147.793V152H128.988V147.846C128.988 146.924 128.537 146.463 127.635 146.463C126.924 146.463 126.438 146.766 126.176 147.371V152H125.092V145.66H126.117ZM138.252 152.117C137.393 152.117 136.693 151.836 136.154 151.273C135.615 150.707 135.346 149.951 135.346 149.006V148.807C135.346 148.178 135.465 147.617 135.703 147.125C135.945 146.629 136.281 146.242 136.711 145.965C137.145 145.684 137.613 145.543 138.117 145.543C138.941 145.543 139.582 145.814 140.039 146.357C140.496 146.9 140.725 147.678 140.725 148.689V149.141H136.43C136.445 149.766 136.627 150.271 136.975 150.658C137.326 151.041 137.771 151.232 138.311 151.232C138.693 151.232 139.018 151.154 139.283 150.998C139.549 150.842 139.781 150.635 139.98 150.377L140.643 150.893C140.111 151.709 139.314 152.117 138.252 152.117ZM138.117 146.434C137.68 146.434 137.312 146.594 137.016 146.914C136.719 147.23 136.535 147.676 136.465 148.25H139.641V148.168C139.609 147.617 139.461 147.191 139.195 146.891C138.93 146.586 138.57 146.434 138.117 146.434ZM145.676 150.318C145.676 150.025 145.564 149.799 145.342 149.639C145.123 149.475 144.738 149.334 144.188 149.217C143.641 149.1 143.205 148.959 142.881 148.795C142.561 148.631 142.322 148.436 142.166 148.209C142.014 147.982 141.938 147.713 141.938 147.4C141.938 146.881 142.156 146.441 142.594 146.082C143.035 145.723 143.598 145.543 144.281 145.543C145 145.543 145.582 145.729 146.027 146.1C146.477 146.471 146.701 146.945 146.701 147.523H145.611C145.611 147.227 145.484 146.971 145.23 146.756C144.98 146.541 144.664 146.434 144.281 146.434C143.887 146.434 143.578 146.52 143.355 146.691C143.133 146.863 143.021 147.088 143.021 147.365C143.021 147.627 143.125 147.824 143.332 147.957C143.539 148.09 143.912 148.217 144.451 148.338C144.994 148.459 145.434 148.604 145.77 148.771C146.105 148.939 146.354 149.143 146.514 149.381C146.678 149.615 146.76 149.902 146.76 150.242C146.76 150.809 146.533 151.264 146.08 151.607C145.627 151.947 145.039 152.117 144.316 152.117C143.809 152.117 143.359 152.027 142.969 151.848C142.578 151.668 142.271 151.418 142.049 151.098C141.83 150.773 141.721 150.424 141.721 150.049H142.805C142.824 150.412 142.969 150.701 143.238 150.916C143.512 151.127 143.871 151.232 144.316 151.232C144.727 151.232 145.055 151.15 145.301 150.986C145.551 150.818 145.676 150.596 145.676 150.318ZM151.863 150.318C151.863 150.025 151.752 149.799 151.529 149.639C151.311 149.475 150.926 149.334 150.375 149.217C149.828 149.1 149.393 148.959 149.068 148.795C148.748 148.631 148.51 148.436 148.354 148.209C148.201 147.982 148.125 147.713 148.125 147.4C148.125 146.881 148.344 146.441 148.781 146.082C149.223 145.723 149.785 145.543 150.469 145.543C151.188 145.543 151.77 145.729 152.215 146.1C152.664 146.471 152.889 146.945 152.889 147.523H151.799C151.799 147.227 151.672 146.971 151.418 146.756C151.168 146.541 150.852 146.434 150.469 146.434C150.074 146.434 149.766 146.52 149.543 146.691C149.32 146.863 149.209 147.088 149.209 147.365C149.209 147.627 149.312 147.824 149.52 147.957C149.727 148.09 150.1 148.217 150.639 148.338C151.182 148.459 151.621 148.604 151.957 148.771C152.293 148.939 152.541 149.143 152.701 149.381C152.865 149.615 152.947 149.902 152.947 150.242C152.947 150.809 152.721 151.264 152.268 151.607C151.814 151.947 151.227 152.117 150.504 152.117C149.996 152.117 149.547 152.027 149.156 151.848C148.766 151.668 148.459 151.418 148.236 151.098C148.018 150.773 147.908 150.424 147.908 150.049H148.992C149.012 150.412 149.156 150.701 149.426 150.916C149.699 151.127 150.059 151.232 150.504 151.232C150.914 151.232 151.242 151.15 151.488 150.986C151.738 150.818 151.863 150.596 151.863 150.318ZM158.273 152C158.211 151.875 158.16 151.652 158.121 151.332C157.617 151.855 157.016 152.117 156.316 152.117C155.691 152.117 155.178 151.941 154.775 151.59C154.377 151.234 154.178 150.785 154.178 150.242C154.178 149.582 154.428 149.07 154.928 148.707C155.432 148.34 156.139 148.156 157.049 148.156H158.104V147.658C158.104 147.279 157.99 146.979 157.764 146.756C157.537 146.529 157.203 146.416 156.762 146.416C156.375 146.416 156.051 146.514 155.789 146.709C155.527 146.904 155.396 147.141 155.396 147.418H154.307C154.307 147.102 154.418 146.797 154.641 146.504C154.867 146.207 155.172 145.973 155.555 145.801C155.941 145.629 156.365 145.543 156.826 145.543C157.557 145.543 158.129 145.727 158.543 146.094C158.957 146.457 159.172 146.959 159.188 147.6V150.518C159.188 151.1 159.262 151.562 159.41 151.906V152H158.273ZM156.475 151.174C156.814 151.174 157.137 151.086 157.441 150.91C157.746 150.734 157.967 150.506 158.104 150.225V148.924H157.254C155.926 148.924 155.262 149.312 155.262 150.09C155.262 150.43 155.375 150.695 155.602 150.887C155.828 151.078 156.119 151.174 156.475 151.174ZM160.629 148.777C160.629 147.789 160.857 147.004 161.314 146.422C161.771 145.836 162.377 145.543 163.131 145.543C163.904 145.543 164.508 145.816 164.941 146.363L164.994 145.66H165.984V151.848C165.984 152.668 165.74 153.314 165.252 153.787C164.768 154.26 164.115 154.496 163.295 154.496C162.838 154.496 162.391 154.398 161.953 154.203C161.516 154.008 161.182 153.74 160.951 153.4L161.514 152.75C161.979 153.324 162.547 153.611 163.219 153.611C163.746 153.611 164.156 153.463 164.449 153.166C164.746 152.869 164.895 152.451 164.895 151.912V151.367C164.461 151.867 163.869 152.117 163.119 152.117C162.377 152.117 161.775 151.818 161.314 151.221C160.857 150.623 160.629 149.809 160.629 148.777ZM161.719 148.9C161.719 149.615 161.865 150.178 162.158 150.588C162.451 150.994 162.861 151.197 163.389 151.197C164.072 151.197 164.574 150.887 164.895 150.266V147.371C164.562 146.766 164.064 146.463 163.4 146.463C162.873 146.463 162.461 146.668 162.164 147.078C161.867 147.488 161.719 148.096 161.719 148.9ZM170.256 152.117C169.396 152.117 168.697 151.836 168.158 151.273C167.619 150.707 167.35 149.951 167.35 149.006V148.807C167.35 148.178 167.469 147.617 167.707 147.125C167.949 146.629 168.285 146.242 168.715 145.965C169.148 145.684 169.617 145.543 170.121 145.543C170.945 145.543 171.586 145.814 172.043 146.357C172.5 146.9 172.729 147.678 172.729 148.689V149.141H168.434C168.449 149.766 168.631 150.271 168.979 150.658C169.33 151.041 169.775 151.232 170.314 151.232C170.697 151.232 171.021 151.154 171.287 150.998C171.553 150.842 171.785 150.635 171.984 150.377L172.646 150.893C172.115 151.709 171.318 152.117 170.256 152.117ZM170.121 146.434C169.684 146.434 169.316 146.594 169.02 146.914C168.723 147.23 168.539 147.676 168.469 148.25H171.645V148.168C171.613 147.617 171.465 147.191 171.199 146.891C170.934 146.586 170.574 146.434 170.121 146.434Z" fill="#AFC0D1"/>
<line x1="11" y1="173.5" x2="251" y2="173.5" stroke="#22303F"/>
<line x1="11" y1="244.5" x2="251" y2="244.5" stroke="#22303F"/>
<circle cx="48" cy="210" r="24" fill="#8F5DB7"/>
<path d="M48.0032 195H47.9962C39.7251 195 32.9997 201.728 32.9997 210C32.9947 213.159 33.9949 216.239 35.8556 218.792L33.9858 224.364L39.7515 222.521C42.1973 224.144 45.0683 225.006 48.0032 225C56.2743 225 62.9997 218.271 62.9997 210C62.9997 201.729 56.2743 195 48.0032 195ZM56.3604 216.892V216.902C55.6368 218.221 54.2815 219.677 52.8876 219.212L52.8741 219.192C51.4597 218.781 48.128 217.006 46.0216 215.273C41.5409 211.609 40.1353 206.76 39.37 205.239C38.9218 203.796 40.3233 202.395 41.603 201.646H41.6165C42.2317 201.313 42.8241 201.424 43.2173 201.917C43.5917 202.441 44.3271 203.123 45.4222 205.102C45.8323 205.857 45.5774 206.625 45.1749 206.947L44.3704 207.612C43.9603 207.952 44.0188 208.583 44.0188 208.583C44.0188 208.583 45.2118 213.25 49.6714 214.43C49.6714 214.43 50.2825 214.488 50.6089 214.063L51.2534 213.23C51.561 212.814 52.3052 212.551 53.0364 212.974C54.022 213.549 55.2765 214.444 56.1085 215.255C56.5749 215.65 56.6815 216.254 56.3604 216.892ZM48.8833 203.655C48.3149 203.614 48.3741 202.718 48.9419 202.76C52.8319 203.053 54.902 205.818 54.8294 209.175C54.8224 209.771 53.9505 209.743 53.964 209.154C54.0349 206.214 52.2571 203.912 48.8833 203.655ZM52.6052 208.373C52.6315 208.969 51.7661 209.011 51.7392 208.414C51.6653 206.891 50.9774 206.146 49.5536 206.063C48.9782 206.029 49.0315 205.134 49.6011 205.168C51.4714 205.271 52.5114 206.381 52.6052 208.373V208.373ZM56.2526 210.091C56.2128 204.44 52.5724 201.36 48.1526 201.325C47.5825 201.318 47.5825 200.43 48.1526 200.43C53.095 200.464 57.0694 203.995 57.1175 210.084C57.1257 210.68 56.2526 210.687 56.2526 210.091V210.091Z" fill="white"/>
<path d="M87.9141 202.885L89.8477 196.469H91.8047L88.834 205H87L84.041 196.469H85.9922L87.9141 202.885ZM94.2891 205H92.5898V198.66H94.2891V205ZM92.4902 197.02C92.4902 196.766 92.5742 196.557 92.7422 196.393C92.9141 196.229 93.1465 196.146 93.4395 196.146C93.7285 196.146 93.959 196.229 94.1309 196.393C94.3027 196.557 94.3887 196.766 94.3887 197.02C94.3887 197.277 94.3008 197.488 94.125 197.652C93.9531 197.816 93.7246 197.898 93.4395 197.898C93.1543 197.898 92.9238 197.816 92.748 197.652C92.5762 197.488 92.4902 197.277 92.4902 197.02ZM101.402 201.889C101.402 202.904 101.186 203.697 100.752 204.268C100.318 204.834 99.7129 205.117 98.9355 205.117C98.248 205.117 97.6992 204.854 97.2891 204.326L97.2129 205H95.6895V196H97.3828V199.229C97.7734 198.771 98.2871 198.543 98.9238 198.543C99.6973 198.543 100.303 198.828 100.74 199.398C101.182 199.965 101.402 200.764 101.402 201.795V201.889ZM99.709 201.766C99.709 201.125 99.6074 200.658 99.4043 200.365C99.2012 200.068 98.8984 199.92 98.4961 199.92C97.957 199.92 97.5859 200.141 97.3828 200.582V203.084C97.5898 203.529 97.9648 203.752 98.5078 203.752C99.0547 203.752 99.4141 203.482 99.5859 202.943C99.668 202.686 99.709 202.293 99.709 201.766ZM105.369 205.117C104.439 205.117 103.682 204.832 103.096 204.262C102.514 203.691 102.223 202.932 102.223 201.982V201.818C102.223 201.182 102.346 200.613 102.592 200.113C102.838 199.609 103.186 199.223 103.635 198.953C104.088 198.68 104.604 198.543 105.182 198.543C106.049 198.543 106.73 198.816 107.227 199.363C107.727 199.91 107.977 200.686 107.977 201.689V202.381H103.939C103.994 202.795 104.158 203.127 104.432 203.377C104.709 203.627 105.059 203.752 105.48 203.752C106.133 203.752 106.643 203.516 107.01 203.043L107.842 203.975C107.588 204.334 107.244 204.615 106.811 204.818C106.377 205.018 105.896 205.117 105.369 205.117ZM105.176 199.914C104.84 199.914 104.566 200.027 104.355 200.254C104.148 200.48 104.016 200.805 103.957 201.227H106.312V201.092C106.305 200.717 106.203 200.428 106.008 200.225C105.812 200.018 105.535 199.914 105.176 199.914ZM112.506 200.248C112.275 200.217 112.072 200.201 111.896 200.201C111.256 200.201 110.836 200.418 110.637 200.852V205H108.943V198.66H110.543L110.59 199.416C110.93 198.834 111.4 198.543 112.002 198.543C112.189 198.543 112.365 198.568 112.529 198.619L112.506 200.248Z" fill="white"/>
<path d="M86.8301 220.311L86.9941 221.436L87.2344 220.422L88.9219 214.469H89.8711L91.5176 220.422L91.752 221.453L91.9336 220.305L93.2578 214.469H94.3887L92.3203 223H91.2949L89.5371 216.783L89.4023 216.133L89.2676 216.783L87.4453 223H86.4199L84.3574 214.469H85.4824L86.8301 220.311ZM98.4082 217.633C98.2441 217.605 98.0664 217.592 97.875 217.592C97.1641 217.592 96.6816 217.895 96.4277 218.5V223H95.3438V216.66H96.3984L96.416 217.393C96.7715 216.826 97.2754 216.543 97.9277 216.543C98.1387 216.543 98.2988 216.57 98.4082 216.625V217.633ZM100.588 223H99.5039V216.66H100.588V223ZM99.416 214.979C99.416 214.803 99.4688 214.654 99.5742 214.533C99.6836 214.412 99.8438 214.352 100.055 214.352C100.266 214.352 100.426 214.412 100.535 214.533C100.645 214.654 100.699 214.803 100.699 214.979C100.699 215.154 100.645 215.301 100.535 215.418C100.426 215.535 100.266 215.594 100.055 215.594C99.8438 215.594 99.6836 215.535 99.5742 215.418C99.4688 215.301 99.416 215.154 99.416 214.979ZM103.799 215.125V216.66H104.982V217.498H103.799V221.43C103.799 221.684 103.852 221.875 103.957 222.004C104.062 222.129 104.242 222.191 104.496 222.191C104.621 222.191 104.793 222.168 105.012 222.121V223C104.727 223.078 104.449 223.117 104.18 223.117C103.695 223.117 103.33 222.971 103.084 222.678C102.838 222.385 102.715 221.969 102.715 221.43V217.498H101.561V216.66H102.715V215.125H103.799ZM108.885 223.117C108.025 223.117 107.326 222.836 106.787 222.273C106.248 221.707 105.979 220.951 105.979 220.006V219.807C105.979 219.178 106.098 218.617 106.336 218.125C106.578 217.629 106.914 217.242 107.344 216.965C107.777 216.684 108.246 216.543 108.75 216.543C109.574 216.543 110.215 216.814 110.672 217.357C111.129 217.9 111.357 218.678 111.357 219.689V220.141H107.062C107.078 220.766 107.26 221.271 107.607 221.658C107.959 222.041 108.404 222.232 108.943 222.232C109.326 222.232 109.65 222.154 109.916 221.998C110.182 221.842 110.414 221.635 110.613 221.377L111.275 221.893C110.744 222.709 109.947 223.117 108.885 223.117ZM108.75 217.434C108.312 217.434 107.945 217.594 107.648 217.914C107.352 218.23 107.168 218.676 107.098 219.25H110.273V219.168C110.242 218.617 110.094 218.191 109.828 217.891C109.562 217.586 109.203 217.434 108.75 217.434ZM119.508 223C119.445 222.875 119.395 222.652 119.355 222.332C118.852 222.855 118.25 223.117 117.551 223.117C116.926 223.117 116.412 222.941 116.01 222.59C115.611 222.234 115.412 221.785 115.412 221.242C115.412 220.582 115.662 220.07 116.162 219.707C116.666 219.34 117.373 219.156 118.283 219.156H119.338V218.658C119.338 218.279 119.225 217.979 118.998 217.756C118.771 217.529 118.438 217.416 117.996 217.416C117.609 217.416 117.285 217.514 117.023 217.709C116.762 217.904 116.631 218.141 116.631 218.418H115.541C115.541 218.102 115.652 217.797 115.875 217.504C116.102 217.207 116.406 216.973 116.789 216.801C117.176 216.629 117.6 216.543 118.061 216.543C118.791 216.543 119.363 216.727 119.777 217.094C120.191 217.457 120.406 217.959 120.422 218.6V221.518C120.422 222.1 120.496 222.562 120.645 222.906V223H119.508ZM117.709 222.174C118.049 222.174 118.371 222.086 118.676 221.91C118.98 221.734 119.201 221.506 119.338 221.225V219.924H118.488C117.16 219.924 116.496 220.312 116.496 221.09C116.496 221.43 116.609 221.695 116.836 221.887C117.062 222.078 117.354 222.174 117.709 222.174ZM126.117 216.66L126.146 217.363C126.611 216.816 127.238 216.543 128.027 216.543C128.914 216.543 129.518 216.883 129.838 217.562C130.049 217.258 130.322 217.012 130.658 216.824C130.998 216.637 131.398 216.543 131.859 216.543C133.25 216.543 133.957 217.279 133.98 218.752V223H132.896V218.816C132.896 218.363 132.793 218.025 132.586 217.803C132.379 217.576 132.031 217.463 131.543 217.463C131.141 217.463 130.807 217.584 130.541 217.826C130.275 218.064 130.121 218.387 130.078 218.793V223H128.988V218.846C128.988 217.924 128.537 217.463 127.635 217.463C126.924 217.463 126.438 217.766 126.176 218.371V223H125.092V216.66H126.117ZM138.252 223.117C137.393 223.117 136.693 222.836 136.154 222.273C135.615 221.707 135.346 220.951 135.346 220.006V219.807C135.346 219.178 135.465 218.617 135.703 218.125C135.945 217.629 136.281 217.242 136.711 216.965C137.145 216.684 137.613 216.543 138.117 216.543C138.941 216.543 139.582 216.814 140.039 217.357C140.496 217.9 140.725 218.678 140.725 219.689V220.141H136.43C136.445 220.766 136.627 221.271 136.975 221.658C137.326 222.041 137.771 222.232 138.311 222.232C138.693 222.232 139.018 222.154 139.283 221.998C139.549 221.842 139.781 221.635 139.98 221.377L140.643 221.893C140.111 222.709 139.314 223.117 138.252 223.117ZM138.117 217.434C137.68 217.434 137.312 217.594 137.016 217.914C136.719 218.23 136.535 218.676 136.465 219.25H139.641V219.168C139.609 218.617 139.461 218.191 139.195 217.891C138.93 217.586 138.57 217.434 138.117 217.434ZM145.676 221.318C145.676 221.025 145.564 220.799 145.342 220.639C145.123 220.475 144.738 220.334 144.188 220.217C143.641 220.1 143.205 219.959 142.881 219.795C142.561 219.631 142.322 219.436 142.166 219.209C142.014 218.982 141.938 218.713 141.938 218.4C141.938 217.881 142.156 217.441 142.594 217.082C143.035 216.723 143.598 216.543 144.281 216.543C145 216.543 145.582 216.729 146.027 217.1C146.477 217.471 146.701 217.945 146.701 218.523H145.611C145.611 218.227 145.484 217.971 145.23 217.756C144.98 217.541 144.664 217.434 144.281 217.434C143.887 217.434 143.578 217.52 143.355 217.691C143.133 217.863 143.021 218.088 143.021 218.365C143.021 218.627 143.125 218.824 143.332 218.957C143.539 219.09 143.912 219.217 144.451 219.338C144.994 219.459 145.434 219.604 145.77 219.771C146.105 219.939 146.354 220.143 146.514 220.381C146.678 220.615 146.76 220.902 146.76 221.242C146.76 221.809 146.533 222.264 146.08 222.607C145.627 222.947 145.039 223.117 144.316 223.117C143.809 223.117 143.359 223.027 142.969 222.848C142.578 222.668 142.271 222.418 142.049 222.098C141.83 221.773 141.721 221.424 141.721 221.049H142.805C142.824 221.412 142.969 221.701 143.238 221.916C143.512 222.127 143.871 222.232 144.316 222.232C144.727 222.232 145.055 222.15 145.301 221.986C145.551 221.818 145.676 221.596 145.676 221.318ZM151.863 221.318C151.863 221.025 151.752 220.799 151.529 220.639C151.311 220.475 150.926 220.334 150.375 220.217C149.828 220.1 149.393 219.959 149.068 219.795C148.748 219.631 148.51 219.436 148.354 219.209C148.201 218.982 148.125 218.713 148.125 218.4C148.125 217.881 148.344 217.441 148.781 217.082C149.223 216.723 149.785 216.543 150.469 216.543C151.188 216.543 151.77 216.729 152.215 217.1C152.664 217.471 152.889 217.945 152.889 218.523H151.799C151.799 218.227 151.672 217.971 151.418 217.756C151.168 217.541 150.852 217.434 150.469 217.434C150.074 217.434 149.766 217.52 149.543 217.691C149.32 217.863 149.209 218.088 149.209 218.365C149.209 218.627 149.312 218.824 149.52 218.957C149.727 219.09 150.1 219.217 150.639 219.338C151.182 219.459 151.621 219.604 151.957 219.771C152.293 219.939 152.541 220.143 152.701 220.381C152.865 220.615 152.947 220.902 152.947 221.242C152.947 221.809 152.721 222.264 152.268 222.607C151.814 222.947 151.227 223.117 150.504 223.117C149.996 223.117 149.547 223.027 149.156 222.848C148.766 222.668 148.459 222.418 148.236 222.098C148.018 221.773 147.908 221.424 147.908 221.049H148.992C149.012 221.412 149.156 221.701 149.426 221.916C149.699 222.127 150.059 222.232 150.504 222.232C150.914 222.232 151.242 222.15 151.488 221.986C151.738 221.818 151.863 221.596 151.863 221.318ZM158.273 223C158.211 222.875 158.16 222.652 158.121 222.332C157.617 222.855 157.016 223.117 156.316 223.117C155.691 223.117 155.178 222.941 154.775 222.59C154.377 222.234 154.178 221.785 154.178 221.242C154.178 220.582 154.428 220.07 154.928 219.707C155.432 219.34 156.139 219.156 157.049 219.156H158.104V218.658C158.104 218.279 157.99 217.979 157.764 217.756C157.537 217.529 157.203 217.416 156.762 217.416C156.375 217.416 156.051 217.514 155.789 217.709C155.527 217.904 155.396 218.141 155.396 218.418H154.307C154.307 218.102 154.418 217.797 154.641 217.504C154.867 217.207 155.172 216.973 155.555 216.801C155.941 216.629 156.365 216.543 156.826 216.543C157.557 216.543 158.129 216.727 158.543 217.094C158.957 217.457 159.172 217.959 159.188 218.6V221.518C159.188 222.1 159.262 222.562 159.41 222.906V223H158.273ZM156.475 222.174C156.814 222.174 157.137 222.086 157.441 221.91C157.746 221.734 157.967 221.506 158.104 221.225V219.924H157.254C155.926 219.924 155.262 220.312 155.262 221.09C155.262 221.43 155.375 221.695 155.602 221.887C155.828 222.078 156.119 222.174 156.475 222.174ZM160.629 219.777C160.629 218.789 160.857 218.004 161.314 217.422C161.771 216.836 162.377 216.543 163.131 216.543C163.904 216.543 164.508 216.816 164.941 217.363L164.994 216.66H165.984V222.848C165.984 223.668 165.74 224.314 165.252 224.787C164.768 225.26 164.115 225.496 163.295 225.496C162.838 225.496 162.391 225.398 161.953 225.203C161.516 225.008 161.182 224.74 160.951 224.4L161.514 223.75C161.979 224.324 162.547 224.611 163.219 224.611C163.746 224.611 164.156 224.463 164.449 224.166C164.746 223.869 164.895 223.451 164.895 222.912V222.367C164.461 222.867 163.869 223.117 163.119 223.117C162.377 223.117 161.775 222.818 161.314 222.221C160.857 221.623 160.629 220.809 160.629 219.777ZM161.719 219.9C161.719 220.615 161.865 221.178 162.158 221.588C162.451 221.994 162.861 222.197 163.389 222.197C164.072 222.197 164.574 221.887 164.895 221.266V218.371C164.562 217.766 164.064 217.463 163.4 217.463C162.873 217.463 162.461 217.668 162.164 218.078C161.867 218.488 161.719 219.096 161.719 219.9ZM170.256 223.117C169.396 223.117 168.697 222.836 168.158 222.273C167.619 221.707 167.35 220.951 167.35 220.006V219.807C167.35 219.178 167.469 218.617 167.707 218.125C167.949 217.629 168.285 217.242 168.715 216.965C169.148 216.684 169.617 216.543 170.121 216.543C170.945 216.543 171.586 216.814 172.043 217.357C172.5 217.9 172.729 218.678 172.729 219.689V220.141H168.434C168.449 220.766 168.631 221.271 168.979 221.658C169.33 222.041 169.775 222.232 170.314 222.232C170.697 222.232 171.021 222.154 171.287 221.998C171.553 221.842 171.785 221.635 171.984 221.377L172.646 221.893C172.115 222.709 171.318 223.117 170.256 223.117ZM170.121 217.434C169.684 217.434 169.316 217.594 169.02 217.914C168.723 218.23 168.539 218.676 168.469 219.25H171.645V219.168C171.613 218.617 171.465 218.191 171.199 217.891C170.934 217.586 170.574 217.434 170.121 217.434Z" fill="#AFC0D1"/>
<line x1="11" y1="244.5" x2="251" y2="244.5" stroke="#22303F"/>
<circle cx="48" cy="281" r="24" fill="#1B9DE2"/>
<path d="M42.7713 286.976L42.275 293.956C42.985 293.956 43.2925 293.651 43.6613 293.285L46.99 290.104L53.8875 295.155C55.1525 295.86 56.0437 295.489 56.385 293.991L60.9125 272.776L60.9137 272.775C61.315 270.905 60.2375 270.174 59.005 270.632L32.3925 280.821C30.5763 281.526 30.6038 282.539 32.0838 282.997L38.8875 285.114L54.6912 275.225C55.435 274.732 56.1112 275.005 55.555 275.497L42.7713 286.976Z" fill="white"/>
<path d="M91.1836 268.893H88.5703V276H86.8125V268.893H84.2344V267.469H91.1836V268.893ZM94.4707 276.117C93.541 276.117 92.7832 275.832 92.1973 275.262C91.6152 274.691 91.3242 273.932 91.3242 272.982V272.818C91.3242 272.182 91.4473 271.613 91.6934 271.113C91.9395 270.609 92.2871 270.223 92.7363 269.953C93.1895 269.68 93.7051 269.543 94.2832 269.543C95.1504 269.543 95.832 269.816 96.3281 270.363C96.8281 270.91 97.0781 271.686 97.0781 272.689V273.381H93.041C93.0957 273.795 93.2598 274.127 93.5332 274.377C93.8105 274.627 94.1602 274.752 94.582 274.752C95.2344 274.752 95.7441 274.516 96.1113 274.043L96.9434 274.975C96.6895 275.334 96.3457 275.615 95.9121 275.818C95.4785 276.018 94.998 276.117 94.4707 276.117ZM94.2773 270.914C93.9414 270.914 93.668 271.027 93.457 271.254C93.25 271.48 93.1172 271.805 93.0586 272.227H95.4141V272.092C95.4062 271.717 95.3047 271.428 95.1094 271.225C94.9141 271.018 94.6367 270.914 94.2773 270.914ZM99.832 276H98.1328V267H99.832V276ZM104.15 276.117C103.221 276.117 102.463 275.832 101.877 275.262C101.295 274.691 101.004 273.932 101.004 272.982V272.818C101.004 272.182 101.127 271.613 101.373 271.113C101.619 270.609 101.967 270.223 102.416 269.953C102.869 269.68 103.385 269.543 103.963 269.543C104.83 269.543 105.512 269.816 106.008 270.363C106.508 270.91 106.758 271.686 106.758 272.689V273.381H102.721C102.775 273.795 102.939 274.127 103.213 274.377C103.49 274.627 103.84 274.752 104.262 274.752C104.914 274.752 105.424 274.516 105.791 274.043L106.623 274.975C106.369 275.334 106.025 275.615 105.592 275.818C105.158 276.018 104.678 276.117 104.15 276.117ZM103.957 270.914C103.621 270.914 103.348 271.027 103.137 271.254C102.93 271.48 102.797 271.805 102.738 272.227H105.094V272.092C105.086 271.717 104.984 271.428 104.789 271.225C104.594 271.018 104.316 270.914 103.957 270.914ZM107.479 272.783C107.479 271.811 107.709 271.027 108.17 270.434C108.635 269.84 109.26 269.543 110.045 269.543C110.74 269.543 111.281 269.781 111.668 270.258L111.738 269.66H113.273V275.789C113.273 276.344 113.146 276.826 112.893 277.236C112.643 277.646 112.289 277.959 111.832 278.174C111.375 278.389 110.84 278.496 110.227 278.496C109.762 278.496 109.309 278.402 108.867 278.215C108.426 278.031 108.092 277.793 107.865 277.5L108.615 276.469C109.037 276.941 109.549 277.178 110.15 277.178C110.6 277.178 110.949 277.057 111.199 276.814C111.449 276.576 111.574 276.236 111.574 275.795V275.455C111.184 275.896 110.67 276.117 110.033 276.117C109.271 276.117 108.654 275.82 108.182 275.227C107.713 274.629 107.479 273.838 107.479 272.854V272.783ZM109.172 272.906C109.172 273.48 109.287 273.932 109.518 274.26C109.748 274.584 110.064 274.746 110.467 274.746C110.982 274.746 111.352 274.553 111.574 274.166V271.5C111.348 271.113 110.982 270.92 110.479 270.92C110.072 270.92 109.752 271.086 109.518 271.418C109.287 271.75 109.172 272.246 109.172 272.906ZM118.143 271.248C117.912 271.217 117.709 271.201 117.533 271.201C116.893 271.201 116.473 271.418 116.273 271.852V276H114.58V269.66H116.18L116.227 270.416C116.566 269.834 117.037 269.543 117.639 269.543C117.826 269.543 118.002 269.568 118.166 269.619L118.143 271.248ZM122.461 276C122.383 275.848 122.326 275.658 122.291 275.432C121.881 275.889 121.348 276.117 120.691 276.117C120.07 276.117 119.555 275.938 119.145 275.578C118.738 275.219 118.535 274.766 118.535 274.219C118.535 273.547 118.783 273.031 119.279 272.672C119.779 272.312 120.5 272.131 121.441 272.127H122.221V271.764C122.221 271.471 122.145 271.236 121.992 271.061C121.844 270.885 121.607 270.797 121.283 270.797C120.998 270.797 120.773 270.865 120.609 271.002C120.449 271.139 120.369 271.326 120.369 271.564H118.676C118.676 271.197 118.789 270.857 119.016 270.545C119.242 270.232 119.562 269.988 119.977 269.812C120.391 269.633 120.855 269.543 121.371 269.543C122.152 269.543 122.771 269.74 123.229 270.135C123.689 270.525 123.92 271.076 123.92 271.787V274.535C123.924 275.137 124.008 275.592 124.172 275.9V276H122.461ZM121.061 274.822C121.311 274.822 121.541 274.768 121.752 274.658C121.963 274.545 122.119 274.395 122.221 274.207V273.117H121.588C120.74 273.117 120.289 273.41 120.234 273.996L120.229 274.096C120.229 274.307 120.303 274.48 120.451 274.617C120.6 274.754 120.803 274.822 121.061 274.822ZM126.809 269.66L126.861 270.369C127.311 269.818 127.918 269.543 128.684 269.543C129.5 269.543 130.061 269.865 130.365 270.51C130.811 269.865 131.445 269.543 132.27 269.543C132.957 269.543 133.469 269.744 133.805 270.146C134.141 270.545 134.309 271.146 134.309 271.951V276H132.609V271.957C132.609 271.598 132.539 271.336 132.398 271.172C132.258 271.004 132.01 270.92 131.654 270.92C131.146 270.92 130.795 271.162 130.6 271.646L130.605 276H128.912V271.963C128.912 271.596 128.84 271.33 128.695 271.166C128.551 271.002 128.305 270.92 127.957 270.92C127.477 270.92 127.129 271.119 126.914 271.518V276H125.221V269.66H126.809Z" fill="white"/>
<path d="M86.8301 291.311L86.9941 292.436L87.2344 291.422L88.9219 285.469H89.8711L91.5176 291.422L91.752 292.453L91.9336 291.305L93.2578 285.469H94.3887L92.3203 294H91.2949L89.5371 287.783L89.4023 287.133L89.2676 287.783L87.4453 294H86.4199L84.3574 285.469H85.4824L86.8301 291.311ZM98.4082 288.633C98.2441 288.605 98.0664 288.592 97.875 288.592C97.1641 288.592 96.6816 288.895 96.4277 289.5V294H95.3438V287.66H96.3984L96.416 288.393C96.7715 287.826 97.2754 287.543 97.9277 287.543C98.1387 287.543 98.2988 287.57 98.4082 287.625V288.633ZM100.588 294H99.5039V287.66H100.588V294ZM99.416 285.979C99.416 285.803 99.4688 285.654 99.5742 285.533C99.6836 285.412 99.8438 285.352 100.055 285.352C100.266 285.352 100.426 285.412 100.535 285.533C100.645 285.654 100.699 285.803 100.699 285.979C100.699 286.154 100.645 286.301 100.535 286.418C100.426 286.535 100.266 286.594 100.055 286.594C99.8438 286.594 99.6836 286.535 99.5742 286.418C99.4688 286.301 99.416 286.154 99.416 285.979ZM103.799 286.125V287.66H104.982V288.498H103.799V292.43C103.799 292.684 103.852 292.875 103.957 293.004C104.062 293.129 104.242 293.191 104.496 293.191C104.621 293.191 104.793 293.168 105.012 293.121V294C104.727 294.078 104.449 294.117 104.18 294.117C103.695 294.117 103.33 293.971 103.084 293.678C102.838 293.385 102.715 292.969 102.715 292.43V288.498H101.561V287.66H102.715V286.125H103.799ZM108.885 294.117C108.025 294.117 107.326 293.836 106.787 293.273C106.248 292.707 105.979 291.951 105.979 291.006V290.807C105.979 290.178 106.098 289.617 106.336 289.125C106.578 288.629 106.914 288.242 107.344 287.965C107.777 287.684 108.246 287.543 108.75 287.543C109.574 287.543 110.215 287.814 110.672 288.357C111.129 288.9 111.357 289.678 111.357 290.689V291.141H107.062C107.078 291.766 107.26 292.271 107.607 292.658C107.959 293.041 108.404 293.232 108.943 293.232C109.326 293.232 109.65 293.154 109.916 292.998C110.182 292.842 110.414 292.635 110.613 292.377L111.275 292.893C110.744 293.709 109.947 294.117 108.885 294.117ZM108.75 288.434C108.312 288.434 107.945 288.594 107.648 288.914C107.352 289.23 107.168 289.676 107.098 290.25H110.273V290.168C110.242 289.617 110.094 289.191 109.828 288.891C109.562 288.586 109.203 288.434 108.75 288.434ZM119.508 294C119.445 293.875 119.395 293.652 119.355 293.332C118.852 293.855 118.25 294.117 117.551 294.117C116.926 294.117 116.412 293.941 116.01 293.59C115.611 293.234 115.412 292.785 115.412 292.242C115.412 291.582 115.662 291.07 116.162 290.707C116.666 290.34 117.373 290.156 118.283 290.156H119.338V289.658C119.338 289.279 119.225 288.979 118.998 288.756C118.771 288.529 118.438 288.416 117.996 288.416C117.609 288.416 117.285 288.514 117.023 288.709C116.762 288.904 116.631 289.141 116.631 289.418H115.541C115.541 289.102 115.652 288.797 115.875 288.504C116.102 288.207 116.406 287.973 116.789 287.801C117.176 287.629 117.6 287.543 118.061 287.543C118.791 287.543 119.363 287.727 119.777 288.094C120.191 288.457 120.406 288.959 120.422 289.6V292.518C120.422 293.1 120.496 293.562 120.645 293.906V294H119.508ZM117.709 293.174C118.049 293.174 118.371 293.086 118.676 292.91C118.98 292.734 119.201 292.506 119.338 292.225V290.924H118.488C117.16 290.924 116.496 291.312 116.496 292.09C116.496 292.43 116.609 292.695 116.836 292.887C117.062 293.078 117.354 293.174 117.709 293.174ZM126.117 287.66L126.146 288.363C126.611 287.816 127.238 287.543 128.027 287.543C128.914 287.543 129.518 287.883 129.838 288.562C130.049 288.258 130.322 288.012 130.658 287.824C130.998 287.637 131.398 287.543 131.859 287.543C133.25 287.543 133.957 288.279 133.98 289.752V294H132.896V289.816C132.896 289.363 132.793 289.025 132.586 288.803C132.379 288.576 132.031 288.463 131.543 288.463C131.141 288.463 130.807 288.584 130.541 288.826C130.275 289.064 130.121 289.387 130.078 289.793V294H128.988V289.846C128.988 288.924 128.537 288.463 127.635 288.463C126.924 288.463 126.438 288.766 126.176 289.371V294H125.092V287.66H126.117ZM138.252 294.117C137.393 294.117 136.693 293.836 136.154 293.273C135.615 292.707 135.346 291.951 135.346 291.006V290.807C135.346 290.178 135.465 289.617 135.703 289.125C135.945 288.629 136.281 288.242 136.711 287.965C137.145 287.684 137.613 287.543 138.117 287.543C138.941 287.543 139.582 287.814 140.039 288.357C140.496 288.9 140.725 289.678 140.725 290.689V291.141H136.43C136.445 291.766 136.627 292.271 136.975 292.658C137.326 293.041 137.771 293.232 138.311 293.232C138.693 293.232 139.018 293.154 139.283 292.998C139.549 292.842 139.781 292.635 139.98 292.377L140.643 292.893C140.111 293.709 139.314 294.117 138.252 294.117ZM138.117 288.434C137.68 288.434 137.312 288.594 137.016 288.914C136.719 289.23 136.535 289.676 136.465 290.25H139.641V290.168C139.609 289.617 139.461 289.191 139.195 288.891C138.93 288.586 138.57 288.434 138.117 288.434ZM145.676 292.318C145.676 292.025 145.564 291.799 145.342 291.639C145.123 291.475 144.738 291.334 144.188 291.217C143.641 291.1 143.205 290.959 142.881 290.795C142.561 290.631 142.322 290.436 142.166 290.209C142.014 289.982 141.938 289.713 141.938 289.4C141.938 288.881 142.156 288.441 142.594 288.082C143.035 287.723 143.598 287.543 144.281 287.543C145 287.543 145.582 287.729 146.027 288.1C146.477 288.471 146.701 288.945 146.701 289.523H145.611C145.611 289.227 145.484 288.971 145.23 288.756C144.98 288.541 144.664 288.434 144.281 288.434C143.887 288.434 143.578 288.52 143.355 288.691C143.133 288.863 143.021 289.088 143.021 289.365C143.021 289.627 143.125 289.824 143.332 289.957C143.539 290.09 143.912 290.217 144.451 290.338C144.994 290.459 145.434 290.604 145.77 290.771C146.105 290.939 146.354 291.143 146.514 291.381C146.678 291.615 146.76 291.902 146.76 292.242C146.76 292.809 146.533 293.264 146.08 293.607C145.627 293.947 145.039 294.117 144.316 294.117C143.809 294.117 143.359 294.027 142.969 293.848C142.578 293.668 142.271 293.418 142.049 293.098C141.83 292.773 141.721 292.424 141.721 292.049H142.805C142.824 292.412 142.969 292.701 143.238 292.916C143.512 293.127 143.871 293.232 144.316 293.232C144.727 293.232 145.055 293.15 145.301 292.986C145.551 292.818 145.676 292.596 145.676 292.318ZM151.863 292.318C151.863 292.025 151.752 291.799 151.529 291.639C151.311 291.475 150.926 291.334 150.375 291.217C149.828 291.1 149.393 290.959 149.068 290.795C148.748 290.631 148.51 290.436 148.354 290.209C148.201 289.982 148.125 289.713 148.125 289.4C148.125 288.881 148.344 288.441 148.781 288.082C149.223 287.723 149.785 287.543 150.469 287.543C151.188 287.543 151.77 287.729 152.215 288.1C152.664 288.471 152.889 288.945 152.889 289.523H151.799C151.799 289.227 151.672 288.971 151.418 288.756C151.168 288.541 150.852 288.434 150.469 288.434C150.074 288.434 149.766 288.52 149.543 288.691C149.32 288.863 149.209 289.088 149.209 289.365C149.209 289.627 149.312 289.824 149.52 289.957C149.727 290.09 150.1 290.217 150.639 290.338C151.182 290.459 151.621 290.604 151.957 290.771C152.293 290.939 152.541 291.143 152.701 291.381C152.865 291.615 152.947 291.902 152.947 292.242C152.947 292.809 152.721 293.264 152.268 293.607C151.814 293.947 151.227 294.117 150.504 294.117C149.996 294.117 149.547 294.027 149.156 293.848C148.766 293.668 148.459 293.418 148.236 293.098C148.018 292.773 147.908 292.424 147.908 292.049H148.992C149.012 292.412 149.156 292.701 149.426 292.916C149.699 293.127 150.059 293.232 150.504 293.232C150.914 293.232 151.242 293.15 151.488 292.986C151.738 292.818 151.863 292.596 151.863 292.318ZM158.273 294C158.211 293.875 158.16 293.652 158.121 293.332C157.617 293.855 157.016 294.117 156.316 294.117C155.691 294.117 155.178 293.941 154.775 293.59C154.377 293.234 154.178 292.785 154.178 292.242C154.178 291.582 154.428 291.07 154.928 290.707C155.432 290.34 156.139 290.156 157.049 290.156H158.104V289.658C158.104 289.279 157.99 288.979 157.764 288.756C157.537 288.529 157.203 288.416 156.762 288.416C156.375 288.416 156.051 288.514 155.789 288.709C155.527 288.904 155.396 289.141 155.396 289.418H154.307C154.307 289.102 154.418 288.797 154.641 288.504C154.867 288.207 155.172 287.973 155.555 287.801C155.941 287.629 156.365 287.543 156.826 287.543C157.557 287.543 158.129 287.727 158.543 288.094C158.957 288.457 159.172 288.959 159.188 289.6V292.518C159.188 293.1 159.262 293.562 159.41 293.906V294H158.273ZM156.475 293.174C156.814 293.174 157.137 293.086 157.441 292.91C157.746 292.734 157.967 292.506 158.104 292.225V290.924H157.254C155.926 290.924 155.262 291.312 155.262 292.09C155.262 292.43 155.375 292.695 155.602 292.887C155.828 293.078 156.119 293.174 156.475 293.174ZM160.629 290.777C160.629 289.789 160.857 289.004 161.314 288.422C161.771 287.836 162.377 287.543 163.131 287.543C163.904 287.543 164.508 287.816 164.941 288.363L164.994 287.66H165.984V293.848C165.984 294.668 165.74 295.314 165.252 295.787C164.768 296.26 164.115 296.496 163.295 296.496C162.838 296.496 162.391 296.398 161.953 296.203C161.516 296.008 161.182 295.74 160.951 295.4L161.514 294.75C161.979 295.324 162.547 295.611 163.219 295.611C163.746 295.611 164.156 295.463 164.449 295.166C164.746 294.869 164.895 294.451 164.895 293.912V293.367C164.461 293.867 163.869 294.117 163.119 294.117C162.377 294.117 161.775 293.818 161.314 293.221C160.857 292.623 160.629 291.809 160.629 290.777ZM161.719 290.9C161.719 291.615 161.865 292.178 162.158 292.588C162.451 292.994 162.861 293.197 163.389 293.197C164.072 293.197 164.574 292.887 164.895 292.266V289.371C164.562 288.766 164.064 288.463 163.4 288.463C162.873 288.463 162.461 288.668 162.164 289.078C161.867 289.488 161.719 290.096 161.719 290.9ZM170.256 294.117C169.396 294.117 168.697 293.836 168.158 293.273C167.619 292.707 167.35 291.951 167.35 291.006V290.807C167.35 290.178 167.469 289.617 167.707 289.125C167.949 288.629 168.285 288.242 168.715 287.965C169.148 287.684 169.617 287.543 170.121 287.543C170.945 287.543 171.586 287.814 172.043 288.357C172.5 288.9 172.729 289.678 172.729 290.689V291.141H168.434C168.449 291.766 168.631 292.271 168.979 292.658C169.33 293.041 169.775 293.232 170.314 293.232C170.697 293.232 171.021 293.154 171.287 292.998C171.553 292.842 171.785 292.635 171.984 292.377L172.646 292.893C172.115 293.709 171.318 294.117 170.256 294.117ZM170.121 288.434C169.684 288.434 169.316 288.594 169.02 288.914C168.723 289.23 168.539 289.676 168.469 290.25H171.645V290.168C171.613 289.617 171.465 289.191 171.199 288.891C170.934 288.586 170.574 288.434 170.121 288.434Z" fill="#AFC0D1"/>
<path d="M11 12C11 5.37258 16.3726 0 23 0H239C245.627 0 251 5.37258 251 12V32H11V12Z" fill="#22303F"/>
<path d="M31.5469 20H30.416L26.1211 13.4258V20H24.9902V11.4688H26.1211L30.4277 18.0723V11.4688H31.5469V20ZM36.0059 20.1172C35.1465 20.1172 34.4473 19.8359 33.9082 19.2734C33.3691 18.707 33.0996 17.9512 33.0996 17.0059V16.8066C33.0996 16.1777 33.2188 15.6172 33.457 15.125C33.6992 14.6289 34.0352 14.2422 34.4648 13.9648C34.8984 13.6836 35.3672 13.543 35.8711 13.543C36.6953 13.543 37.3359 13.8145 37.793 14.3574C38.25 14.9004 38.4785 15.6777 38.4785 16.6895V17.1406H34.1836C34.1992 17.7656 34.3809 18.2715 34.7285 18.6582C35.0801 19.041 35.5254 19.2324 36.0645 19.2324C36.4473 19.2324 36.7715 19.1543 37.0371 18.998C37.3027 18.8418 37.5352 18.6348 37.7344 18.377L38.3965 18.8926C37.8652 19.709 37.0684 20.1172 36.0059 20.1172ZM35.8711 14.4336C35.4336 14.4336 35.0664 14.5938 34.7695 14.9141C34.4727 15.2305 34.2891 15.6758 34.2188 16.25H37.3945V16.168C37.3633 15.6172 37.2148 15.1914 36.9492 14.8906C36.6836 14.5859 36.3242 14.4336 35.8711 14.4336ZM42.3691 20.1172C41.5098 20.1172 40.8105 19.8359 40.2715 19.2734C39.7324 18.707 39.4629 17.9512 39.4629 17.0059V16.8066C39.4629 16.1777 39.582 15.6172 39.8203 15.125C40.0625 14.6289 40.3984 14.2422 40.8281 13.9648C41.2617 13.6836 41.7305 13.543 42.2344 13.543C43.0586 13.543 43.6992 13.8145 44.1562 14.3574C44.6133 14.9004 44.8418 15.6777 44.8418 16.6895V17.1406H40.5469C40.5625 17.7656 40.7441 18.2715 41.0918 18.6582C41.4434 19.041 41.8887 19.2324 42.4277 19.2324C42.8105 19.2324 43.1348 19.1543 43.4004 18.998C43.666 18.8418 43.8984 18.6348 44.0977 18.377L44.7598 18.8926C44.2285 19.709 43.4316 20.1172 42.3691 20.1172ZM42.2344 14.4336C41.7969 14.4336 41.4297 14.5938 41.1328 14.9141C40.8359 15.2305 40.6523 15.6758 40.582 16.25H43.7578V16.168C43.7266 15.6172 43.5781 15.1914 43.3125 14.8906C43.0469 14.5859 42.6875 14.4336 42.2344 14.4336ZM45.8379 16.7773C45.8379 15.8047 46.0684 15.0234 46.5293 14.4336C46.9902 13.8398 47.5938 13.543 48.3398 13.543C49.082 13.543 49.6699 13.7969 50.1035 14.3047V11H51.1875V20H50.1914L50.1387 19.3203C49.7051 19.8516 49.1016 20.1172 48.3281 20.1172C47.5938 20.1172 46.9941 19.8164 46.5293 19.2148C46.0684 18.6133 45.8379 17.8281 45.8379 16.8594V16.7773ZM46.9219 16.9004C46.9219 17.6191 47.0703 18.1816 47.3672 18.5879C47.6641 18.9941 48.0742 19.1973 48.5977 19.1973C49.2852 19.1973 49.7871 18.8887 50.1035 18.2715V15.3594C49.7793 14.7617 49.2812 14.4629 48.6094 14.4629C48.0781 14.4629 47.6641 14.668 47.3672 15.0781C47.0703 15.4883 46.9219 16.0957 46.9219 16.9004ZM56.9355 14.4277C57.416 13.8379 58.041 13.543 58.8105 13.543C60.1504 13.543 60.8262 14.2988 60.8379 15.8105V20H59.7539V15.8047C59.75 15.3477 59.6445 15.0098 59.4375 14.791C59.2344 14.5723 58.916 14.4629 58.4824 14.4629C58.1309 14.4629 57.8223 14.5566 57.5566 14.7441C57.291 14.9316 57.084 15.1777 56.9355 15.4824V20H55.8516V11H56.9355V14.4277ZM65.0918 20.1172C64.2324 20.1172 63.5332 19.8359 62.9941 19.2734C62.4551 18.707 62.1855 17.9512 62.1855 17.0059V16.8066C62.1855 16.1777 62.3047 15.6172 62.543 15.125C62.7852 14.6289 63.1211 14.2422 63.5508 13.9648C63.9844 13.6836 64.4531 13.543 64.957 13.543C65.7812 13.543 66.4219 13.8145 66.8789 14.3574C67.3359 14.9004 67.5645 15.6777 67.5645 16.6895V17.1406H63.2695C63.2852 17.7656 63.4668 18.2715 63.8145 18.6582C64.166 19.041 64.6113 19.2324 65.1504 19.2324C65.5332 19.2324 65.8574 19.1543 66.123 18.998C66.3887 18.8418 66.6211 18.6348 66.8203 18.377L67.4824 18.8926C66.9512 19.709 66.1543 20.1172 65.0918 20.1172ZM64.957 14.4336C64.5195 14.4336 64.1523 14.5938 63.8555 14.9141C63.5586 15.2305 63.375 15.6758 63.3047 16.25H66.4805V16.168C66.4492 15.6172 66.3008 15.1914 66.0352 14.8906C65.7695 14.5859 65.4102 14.4336 64.957 14.4336ZM70.002 20H68.918V11H70.002V20ZM77.0977 16.9004C77.0977 17.8652 76.877 18.6426 76.4355 19.2324C75.9941 19.8223 75.3965 20.1172 74.6426 20.1172C73.873 20.1172 73.2676 19.873 72.8262 19.3848V22.4375H71.7422V13.6602H72.7324L72.7852 14.3633C73.2266 13.8164 73.8398 13.543 74.625 13.543C75.3867 13.543 75.9883 13.8301 76.4297 14.4043C76.875 14.9785 77.0977 15.7773 77.0977 16.8008V16.9004ZM76.0137 16.7773C76.0137 16.0625 75.8613 15.498 75.5566 15.084C75.252 14.6699 74.834 14.4629 74.3027 14.4629C73.6465 14.4629 73.1543 14.7539 72.8262 15.3359V18.3652C73.1504 18.9434 73.6465 19.2324 74.3145 19.2324C74.834 19.2324 75.2461 19.0273 75.5508 18.6172C75.8594 18.2031 76.0137 17.5898 76.0137 16.7773ZM79.752 17.5977C79.7598 17.1328 79.8125 16.7656 79.9102 16.4961C80.0078 16.2266 80.207 15.9277 80.5078 15.5996L81.2754 14.8086C81.6035 14.4375 81.7676 14.0391 81.7676 13.6133C81.7676 13.2031 81.6602 12.8828 81.4453 12.6523C81.2305 12.418 80.918 12.3008 80.5078 12.3008C80.1094 12.3008 79.7891 12.4062 79.5469 12.6172C79.3047 12.8281 79.1836 13.1113 79.1836 13.4668H78.0996C78.1074 12.834 78.332 12.3242 78.7734 11.9375C79.2188 11.5469 79.7969 11.3516 80.5078 11.3516C81.2461 11.3516 81.8203 11.5508 82.2305 11.9492C82.6445 12.3438 82.8516 12.8867 82.8516 13.5781C82.8516 14.2617 82.5352 14.9355 81.9023 15.5996L81.2637 16.2324C80.9785 16.5488 80.8359 17.0039 80.8359 17.5977H79.752ZM79.7051 19.4551C79.7051 19.2793 79.7578 19.1328 79.8633 19.0156C79.9727 18.8945 80.1328 18.834 80.3438 18.834C80.5547 18.834 80.7148 18.8945 80.8242 19.0156C80.9336 19.1328 80.9883 19.2793 80.9883 19.4551C80.9883 19.6309 80.9336 19.7773 80.8242 19.8945C80.7148 20.0078 80.5547 20.0645 80.3438 20.0645C80.1328 20.0645 79.9727 20.0078 79.8633 19.8945C79.7578 19.7773 79.7051 19.6309 79.7051 19.4551ZM93.5742 17.293C93.4688 18.1953 93.1348 18.8926 92.5723 19.3848C92.0137 19.873 91.2695 20.1172 90.3398 20.1172C89.332 20.1172 88.5234 19.7559 87.9141 19.0332C87.3086 18.3105 87.0059 17.3438 87.0059 16.1328V15.3125C87.0059 14.5195 87.1465 13.8223 87.4277 13.2207C87.7129 12.6191 88.1152 12.1582 88.6348 11.8379C89.1543 11.5137 89.7559 11.3516 90.4395 11.3516C91.3457 11.3516 92.0723 11.6055 92.6191 12.1133C93.166 12.6172 93.4844 13.3164 93.5742 14.2109H92.4434C92.3457 13.5312 92.1328 13.0391 91.8047 12.7344C91.4805 12.4297 91.0254 12.2773 90.4395 12.2773C89.7207 12.2773 89.1562 12.543 88.7461 13.0742C88.3398 13.6055 88.1367 14.3613 88.1367 15.3418V16.168C88.1367 17.0938 88.3301 17.8301 88.7168 18.377C89.1035 18.9238 89.6445 19.1973 90.3398 19.1973C90.9648 19.1973 91.4434 19.0566 91.7754 18.7754C92.1113 18.4902 92.334 17.9961 92.4434 17.293H93.5742ZM94.6582 16.7715C94.6582 16.1504 94.7793 15.5918 95.0215 15.0957C95.2676 14.5996 95.6074 14.2168 96.041 13.9473C96.4785 13.6777 96.9766 13.543 97.5352 13.543C98.3984 13.543 99.0957 13.8418 99.627 14.4395C100.162 15.0371 100.43 15.832 100.43 16.8242V16.9004C100.43 17.5176 100.311 18.0723 100.072 18.5645C99.8379 19.0527 99.5 19.4336 99.0586 19.707C98.6211 19.9805 98.1172 20.1172 97.5469 20.1172C96.6875 20.1172 95.9902 19.8184 95.4551 19.2207C94.9238 18.623 94.6582 17.832 94.6582 16.8477V16.7715ZM95.748 16.9004C95.748 17.6035 95.9102 18.168 96.2344 18.5938C96.5625 19.0195 97 19.2324 97.5469 19.2324C98.0977 19.2324 98.5352 19.0176 98.8594 18.5879C99.1836 18.1543 99.3457 17.5488 99.3457 16.7715C99.3457 16.0762 99.1797 15.5137 98.8477 15.084C98.5195 14.6504 98.082 14.4336 97.5352 14.4336C97 14.4336 96.5684 14.6465 96.2402 15.0723C95.9121 15.498 95.748 16.1074 95.748 16.9004ZM102.814 13.6602L102.85 14.457C103.334 13.8477 103.967 13.543 104.748 13.543C106.088 13.543 106.764 14.2988 106.775 15.8105V20H105.691V15.8047C105.688 15.3477 105.582 15.0098 105.375 14.791C105.172 14.5723 104.854 14.4629 104.42 14.4629C104.068 14.4629 103.76 14.5566 103.494 14.7441C103.229 14.9316 103.021 15.1777 102.873 15.4824V20H101.789V13.6602H102.814ZM109.881 12.125V13.6602H111.064V14.498H109.881V18.4297C109.881 18.6836 109.934 18.875 110.039 19.0039C110.145 19.1289 110.324 19.1914 110.578 19.1914C110.703 19.1914 110.875 19.168 111.094 19.1211V20C110.809 20.0781 110.531 20.1172 110.262 20.1172C109.777 20.1172 109.412 19.9707 109.166 19.6777C108.92 19.3848 108.797 18.9688 108.797 18.4297V14.498H107.643V13.6602H108.797V12.125H109.881ZM116.25 20C116.188 19.875 116.137 19.6523 116.098 19.332C115.594 19.8555 114.992 20.1172 114.293 20.1172C113.668 20.1172 113.154 19.9414 112.752 19.5898C112.354 19.2344 112.154 18.7852 112.154 18.2422C112.154 17.582 112.404 17.0703 112.904 16.707C113.408 16.3398 114.115 16.1562 115.025 16.1562H116.08V15.6582C116.08 15.2793 115.967 14.9785 115.74 14.7559C115.514 14.5293 115.18 14.416 114.738 14.416C114.352 14.416 114.027 14.5137 113.766 14.709C113.504 14.9043 113.373 15.1406 113.373 15.418H112.283C112.283 15.1016 112.395 14.7969 112.617 14.5039C112.844 14.207 113.148 13.9727 113.531 13.8008C113.918 13.6289 114.342 13.543 114.803 13.543C115.533 13.543 116.105 13.7266 116.52 14.0938C116.934 14.457 117.148 14.959 117.164 15.5996V18.5176C117.164 19.0996 117.238 19.5625 117.387 19.9062V20H116.25ZM114.451 19.1738C114.791 19.1738 115.113 19.0859 115.418 18.9102C115.723 18.7344 115.943 18.5059 116.08 18.2246V16.9238H115.23C113.902 16.9238 113.238 17.3125 113.238 18.0898C113.238 18.4297 113.352 18.6953 113.578 18.8867C113.805 19.0781 114.096 19.1738 114.451 19.1738ZM121.406 19.2324C121.793 19.2324 122.131 19.1152 122.42 18.8809C122.709 18.6465 122.869 18.3535 122.9 18.002H123.926C123.906 18.3652 123.781 18.7109 123.551 19.0391C123.32 19.3672 123.012 19.6289 122.625 19.8242C122.242 20.0195 121.836 20.1172 121.406 20.1172C120.543 20.1172 119.855 19.8301 119.344 19.2559C118.836 18.6777 118.582 17.8887 118.582 16.8887V16.707C118.582 16.0898 118.695 15.541 118.922 15.0605C119.148 14.5801 119.473 14.207 119.895 13.9414C120.32 13.6758 120.822 13.543 121.4 13.543C122.111 13.543 122.701 13.7559 123.17 14.1816C123.643 14.6074 123.895 15.1602 123.926 15.8398H122.9C122.869 15.4297 122.713 15.0938 122.432 14.832C122.154 14.5664 121.811 14.4336 121.4 14.4336C120.85 14.4336 120.422 14.6328 120.117 15.0312C119.816 15.4258 119.666 15.998 119.666 16.748V16.9531C119.666 17.6836 119.816 18.2461 120.117 18.6406C120.418 19.0352 120.848 19.2324 121.406 19.2324ZM126.615 12.125V13.6602H127.799V14.498H126.615V18.4297C126.615 18.6836 126.668 18.875 126.773 19.0039C126.879 19.1289 127.059 19.1914 127.312 19.1914C127.438 19.1914 127.609 19.168 127.828 19.1211V20C127.543 20.0781 127.266 20.1172 126.996 20.1172C126.512 20.1172 126.146 19.9707 125.9 19.6777C125.654 19.3848 125.531 18.9688 125.531 18.4297V14.498H124.377V13.6602H125.531V12.125H126.615ZM135.961 19.373C135.539 19.8691 134.92 20.1172 134.104 20.1172C133.428 20.1172 132.912 19.9219 132.557 19.5312C132.205 19.1367 132.027 18.5547 132.023 17.7852V13.6602H133.107V17.7559C133.107 18.7168 133.498 19.1973 134.279 19.1973C135.107 19.1973 135.658 18.8887 135.932 18.2715V13.6602H137.016V20H135.984L135.961 19.373ZM142.359 18.3184C142.359 18.0254 142.248 17.7988 142.025 17.6387C141.807 17.4746 141.422 17.334 140.871 17.2168C140.324 17.0996 139.889 16.959 139.564 16.7949C139.244 16.6309 139.006 16.4355 138.85 16.209C138.697 15.9824 138.621 15.7129 138.621 15.4004C138.621 14.8809 138.84 14.4414 139.277 14.082C139.719 13.7227 140.281 13.543 140.965 13.543C141.684 13.543 142.266 13.7285 142.711 14.0996C143.16 14.4707 143.385 14.9453 143.385 15.5234H142.295C142.295 15.2266 142.168 14.9707 141.914 14.7559C141.664 14.541 141.348 14.4336 140.965 14.4336C140.57 14.4336 140.262 14.5195 140.039 14.6914C139.816 14.8633 139.705 15.0879 139.705 15.3652C139.705 15.627 139.809 15.8242 140.016 15.957C140.223 16.0898 140.596 16.2168 141.135 16.3379C141.678 16.459 142.117 16.6035 142.453 16.7715C142.789 16.9395 143.037 17.1426 143.197 17.3809C143.361 17.6152 143.443 17.9023 143.443 18.2422C143.443 18.8086 143.217 19.2637 142.764 19.6074C142.311 19.9473 141.723 20.1172 141 20.1172C140.492 20.1172 140.043 20.0273 139.652 19.8477C139.262 19.668 138.955 19.418 138.732 19.0977C138.514 18.7734 138.404 18.4238 138.404 18.0488H139.488C139.508 18.4121 139.652 18.7012 139.922 18.916C140.195 19.127 140.555 19.2324 141 19.2324C141.41 19.2324 141.738 19.1504 141.984 18.9863C142.234 18.8184 142.359 18.5957 142.359 18.3184ZM146.068 17.5918H145.09L145.014 11.4688H146.15L146.068 17.5918ZM144.973 19.4551C144.973 19.2793 145.025 19.1328 145.131 19.0156C145.24 18.8945 145.4 18.834 145.611 18.834C145.822 18.834 145.982 18.8945 146.092 19.0156C146.201 19.1328 146.256 19.2793 146.256 19.4551C146.256 19.6309 146.201 19.7773 146.092 19.8945C145.982 20.0078 145.822 20.0645 145.611 20.0645C145.4 20.0645 145.24 20.0078 145.131 19.8945C145.025 19.7773 144.973 19.6309 144.973 19.4551Z" fill="#AFC0D1"/>
<defs>
<filter id="filter0_d" x="0" y="5" width="264" height="324" filterUnits="userSpaceOnUse" color-interpolation-filters="sRGB">
<feFlood flood-opacity="0" result="BackgroundImageFix"/>
<feColorMatrix in="SourceAlpha" type="matrix" values="0 0 0 0 0 0 0 0 0 0 0 0 0 0 0 0 0 0 127 0"/>
<feOffset dx="1" dy="1"/>
<feGaussianBlur stdDeviation="6"/>
<feColorMatrix type="matrix" values="0 0 0 0 0 0 0 0 0 0 0 0 0 0 0 0 0 0 0.25 0"/>
<feBlend mode="normal" in2="BackgroundImageFix" result="effect1_dropShadow"/>
<feBlend mode="normal" in="SourceGraphic" in2="effect1_dropShadow" result="shape"/>
</filter>
</defs>
</svg>
