<?xml version="1.0" encoding="UTF-8"?><!DOCTYPE svg PUBLIC "-//W3C//DTD SVG 1.1//EN" "http://www.w3.org/Graphics/SVG/1.1/DTD/svg11.dtd"><svg xmlns="http://www.w3.org/2000/svg" xmlns:xlink="http://www.w3.org/1999/xlink"><defs><filter id="a" x="0" y="5" width="264" height="324" filterUnits="userSpaceOnUse" color-interpolation-filters="sRGB"><feFlood flood-opacity="0" result="BackgroundImageFix"/><feColorMatrix in="SourceAlpha" values="0 0 0 0 0 0 0 0 0 0 0 0 0 0 0 0 0 0 127 0"/><feOffset dx="1" dy="1"/><feGaussianBlur stdDeviation="6"/><feColorMatrix values="0 0 0 0 0 0 0 0 0 0 0 0 0 0 0 0 0 0 0.25 0"/><feBlend in2="BackgroundImageFix" result="effect1_dropShadow"/><feBlend in="SourceGraphic" in2="effect1_dropShadow" result="shape"/></filter></defs><symbol id="call"><g fill="#FFF"><path d="M406 31H286c-57.891 0-105 47.109-105 105 0 52.808 39.185 96.636 90 103.931V286a14.983 14.983 0 0 0 9.258 13.857c5.533 2.309 12.023 1.071 16.348-3.252L352.211 241H406c57.891 0 106-47.109 106-105S463.891 31 406 31zM286 150.998c-8.286 0-15-6.716-15-15s6.714-15 15-15c8.284 0 15 6.716 15 15s-6.716 15-15 15zm60 0c-8.286 0-15-6.716-15-15s6.714-15 15-15c8.284 0 15 6.716 15 15s-6.716 15-15 15zm60 0c-8.286 0-15-6.716-15-15s6.714-15 15-15c8.284 0 15 6.716 15 15s-6.716 15-15 15z" data-original="#000000" class="active-path" data-old_color="#000000"/><path d="M337 481c24.814 0 45-20.186 45-45v-60c0-6.46-4.131-12.188-10.254-14.224l-89.789-30c-4.395-1.479-9.199-.806-13.066 1.743l-38.174 25.444c-40.43-19.277-88.403-67.251-107.681-107.681l25.444-38.174a15.013 15.013 0 0 0 1.743-13.066l-30-89.789A14.982 14.982 0 0 0 106 100H45c-24.814 0-45 19.975-45 44.789C0 317.611 164.178 481 337 481z" data-original="#000000" class="active-path" data-old_color="#000000"/></g></symbol><symbol id="close" viewBox="0 0 384 384"><g style="enable-background:new 0 0 512 512"><path d="M368 176c-8.832 0-16 7.168-16 16 0 88.224-71.776 160-160 160S32 280.224 32 192 103.776 32 192 32c42.952 0 83.272 16.784 113.536 47.264 6.224 6.264 16.36 6.304 22.624.08 6.272-6.224 6.304-16.36.08-22.632C291.928 20.144 243.536 0 192 0 86.128 0 0 86.128 0 192s86.128 192 192 192c105.864 0 192-86.128 192-192 0-8.832-7.168-16-16-16z" fill="#fff" data-original="#000000" xmlns="http://www.w3.org/2000/svg"/><path d="m214.624 192 36.688-36.688c6.248-6.248 6.248-16.376 0-22.624s-16.376-6.248-22.624 0L192 169.376l-36.688-36.688c-6.24-6.248-16.384-6.248-22.624 0-6.248 6.248-6.248 16.376 0 22.624L169.376 192l-36.688 36.688c-6.248 6.248-6.248 16.376 0 22.624C135.808 254.44 139.904 256 144 256s8.192-1.56 11.312-4.688L192 214.624l36.688 36.688C231.816 254.44 235.904 256 240 256s8.184-1.56 11.312-4.688c6.248-6.248 6.248-16.376 0-22.624L214.624 192z" fill="#fff" data-original="#000000" xmlns="http://www.w3.org/2000/svg"/></g></symbol><symbol id="message"><path d="M256 0C114.516 0 0 114.496 0 256c0 44.902 11.71 88.758 33.95 127.438L.964 485.868a19.999 19.999 0 0 0 25.168 25.167l102.43-32.984C167.243 500.289 211.097 512 256 512c141.484 0 256-114.496 256-256C512 114.516 397.504 0 256 0zm0 472c-40.559 0-80.094-11.316-114.332-32.727a20.013 20.013 0 0 0-16.734-2.078l-73.942 23.813 23.813-73.942a20.015 20.015 0 0 0-2.082-16.734C51.316 336.094 40 296.559 40 256c0-119.102 96.898-216 216-216s216 96.898 216 216-96.898 216-216 216zm25-216c0 13.805-11.191 25-25 25s-25-11.195-25-25c0-13.809 11.191-25 25-25s25 11.191 25 25zm100 0c0 13.805-11.191 25-25 25s-25-11.195-25-25c0-13.809 11.191-25 25-25s25 11.191 25 25zm-200 0c0 13.805-11.191 25-25 25-13.805 0-25-11.195-25-25 0-13.809 11.195-25 25-25 13.809 0 25 11.191 25 25zm0 0" data-original="#000000" class="active-path" data-old_color="#000000" fill="#FFF"/></symbol><symbol id="messenger"><g style="enable-background:new 0 0 512 512"><path d="M256 0C114.624 0 0 106.112 0 237.024c0 74.592 37.216 141.12 95.392 184.576V512l87.168-47.84c23.264 6.432 47.904 9.92 73.44 9.92 141.376 0 256-106.112 256-237.024S397.376 0 256 0zm25.44 319.2-65.184-69.536-127.2 69.536 139.936-148.544 66.784 69.536 125.6-69.536L281.44 319.2z" data-original="#000000" class="active-path" data-old_color="#000000" fill="#FFF"/></g></symbol><symbol id="telegram" viewBox="0 0 24 24"><path d="m9.417 15.181-.397 5.584c.568 0 .814-.244 1.109-.537l2.663-2.545 5.518 4.041c1.012.564 1.725.267 1.998-.931L23.93 3.821l.001-.001c.321-1.496-.541-2.081-1.527-1.714l-21.29 8.151c-1.453.564-1.431 1.374-.247 1.741l5.443 1.693L18.953 5.78c.595-.394 1.136-.176.691.218z" data-original="#000000" class="active-path" data-old_color="#000000" fill="#FFF"/></symbol><symbol id="viber" viewBox="0 0 512 512"><path d="M256.06 0h-.12C114.78 0 0 114.82 0 256a254.11 254.11 0 0 0 48.74 150.05l-31.91 95.1 98.4-31.45A253.83 253.83 0 0 0 256.06 512C397.22 512 512 397.15 512 256S397.22 0 256.06 0Zm142.63 373.62v.18c-12.35 22.5-35.48 47.35-59.27 39.42l-.23-.35c-24.14-7-81-37.3-116.95-66.88-76.47-62.53-100.46-145.28-113.52-171.25-7.65-24.62 16.27-48.53 38.11-61.31h.23c10.5-5.69 20.61-3.79 27.32 4.62 6.39 8.94 18.94 20.58 37.63 54.35 7 12.9 2.65 26-4.22 31.49l-13.73 11.36c-7 5.79-6 16.57-6 16.57s20.36 79.65 96.47 99.78c0 0 10.43 1 16-6.26l11-14.22c5.25-7.1 17.95-11.59 30.43-4.37 16.82 9.82 38.23 25.1 52.43 38.94 7.96 6.74 9.78 17.05 4.3 27.93Zm-127.61-225.9c-9.7-.7-8.69-16 1-15.28 66.39 5 101.72 52.18 100.48 109.48-.12 10.18-15 9.7-14.77-.35 1.21-50.18-29.13-89.48-86.71-93.85Zm63.52 80.51c.45 10.18-14.32 10.89-14.78.71-1.26-26-13-38.71-37.3-40.13-9.82-.58-8.91-15.86.81-15.28 31.92 1.77 49.67 20.71 51.27 54.7Zm62.25 29.32c-.68-96.44-62.81-149-138.24-149.6-9.73-.13-9.73-15.28 0-15.28 84.35.58 152.18 60.84 153 164.76.14 10.17-14.76 10.3-14.76.12Z" style="fill:#fff"/></symbol><symbol id="view"><g fill="none"><g filter="url(#a)"><rect x="11" y="16" width="240" height="300" rx="12" fill="#18222D"/></g><path stroke="#22303F" d="M11 31.5h240M11 102.5h240"/><circle cx="48" cy="68" r="24" fill="#0084FF"/><path d="M48 53c-8.284 0-15 6.218-15 13.888 0 4.37 2.18 8.269 5.59 10.815V83l5.107-2.803a16.13 16.13 0 0 0 4.303.581c8.284 0 15-6.217 15-13.888C63 59.22 56.284 53 48 53Zm1.49 18.703-3.819-4.074-7.453 4.074 8.2-8.704 3.913 4.075 7.359-4.075-8.2 8.704ZM89.894 59.514H86.52V63h-1.757v-8.531h5.554v1.424H86.52v2.203h3.375v1.418ZM94.7 63a1.882 1.882 0 0 1-.17-.568c-.41.457-.943.685-1.6.685-.62 0-1.136-.18-1.546-.539a1.737 1.737 0 0 1-.61-1.36c0-.671.249-1.187.745-1.546.5-.36 1.22-.541 2.162-.545h.779v-.363c0-.293-.076-.528-.228-.704-.149-.175-.385-.263-.71-.263-.285 0-.51.068-.673.205-.16.137-.24.324-.24.563h-1.694a1.7 1.7 0 0 1 .34-1.02c.227-.313.547-.557.96-.733a3.47 3.47 0 0 1 1.395-.269c.782 0 1.4.197 1.858.592.46.39.691.941.691 1.652v2.748c.004.602.088 1.057.252 1.365v.1H94.7Zm-1.4-1.178c.25 0 .48-.054.691-.164.211-.113.367-.264.469-.451v-1.09h-.633c-.847 0-1.299.293-1.353.88l-.006.099c0 .21.074.385.222.521.149.137.352.205.61.205Zm6.797-.07c.312 0 .566-.086.761-.258a.902.902 0 0 0 .305-.685h1.588c-.004.43-.121.824-.352 1.183-.23.356-.546.633-.949.832-.398.196-.84.293-1.324.293-.906 0-1.621-.287-2.144-.861-.524-.578-.786-1.375-.786-2.39v-.112c0-.977.26-1.756.78-2.338.52-.582 1.232-.873 2.138-.873.793 0 1.428.227 1.905.68.48.449.724 1.049.732 1.799h-1.588c-.008-.329-.109-.594-.305-.797-.195-.207-.453-.31-.773-.31-.395 0-.693.144-.897.433-.199.285-.298.75-.298 1.394v.176c0 .652.1 1.121.299 1.406.199.285.501.428.908.428Zm6.539 1.365c-.93 0-1.688-.285-2.274-.855-.582-.57-.873-1.33-.873-2.28v-.164c0-.636.123-1.205.369-1.705a2.7 2.7 0 0 1 1.043-1.16c.454-.273.969-.41 1.547-.41.867 0 1.549.273 2.045.82.5.547.75 1.322.75 2.327v.69h-4.037c.055.415.219.747.492.997.278.25.627.375 1.049.375.652 0 1.162-.236 1.529-.709l.832.932c-.253.359-.597.64-1.031.843a3.41 3.41 0 0 1-1.441.3Zm-.194-5.203c-.336 0-.609.113-.82.34-.207.227-.34.55-.398.973h2.355v-.135c-.008-.375-.109-.664-.305-.867-.195-.207-.472-.31-.832-.31Zm9.481 1.975c0 1.015-.217 1.808-.651 2.379-.433.566-1.039.85-1.816.85-.687 0-1.236-.265-1.646-.792l-.077.674h-1.523v-9h1.693v3.228c.391-.456.905-.685 1.541-.685.774 0 1.379.285 1.817.855.441.567.662 1.366.662 2.397v.094Zm-1.693-.123c0-.641-.102-1.108-.305-1.4-.203-.298-.506-.446-.908-.446-.539 0-.911.22-1.114.662v2.502c.207.445.582.668 1.125.668.547 0 .907-.27 1.078-.809.083-.258.124-.65.124-1.177Zm2.478.006c0-.63.121-1.19.363-1.682s.59-.873 1.043-1.143c.457-.27.987-.404 1.588-.404.856 0 1.553.262 2.092.785.543.524.846 1.234.908 2.133l.012.434c0 .972-.272 1.753-.815 2.343-.543.586-1.271.88-2.185.88-.914 0-1.645-.294-2.192-.88-.542-.586-.814-1.383-.814-2.39v-.076Zm1.693.123c0 .601.114 1.062.34 1.382.227.317.551.475.973.475.41 0 .73-.156.961-.469.23-.316.346-.82.346-1.511 0-.59-.116-1.047-.346-1.372-.231-.324-.555-.486-.973-.486-.414 0-.734.162-.961.486-.226.32-.34.819-.34 1.495Zm5.092-.123c0-.63.121-1.19.363-1.682a2.67 2.67 0 0 1 1.043-1.143c.457-.27.987-.404 1.588-.404.856 0 1.553.262 2.092.785.543.524.846 1.234.908 2.133l.012.434c0 .972-.271 1.753-.814 2.343-.543.586-1.272.88-2.186.88-.914 0-1.644-.294-2.191-.88-.543-.586-.815-1.383-.815-2.39v-.076Zm1.694.123c0 .601.113 1.062.339 1.382.227.317.551.475.973.475.41 0 .731-.156.961-.469.23-.316.346-.82.346-1.511 0-.59-.116-1.047-.346-1.372-.23-.324-.555-.486-.973-.486-.414 0-.734.162-.961.486-.226.32-.339.819-.339 1.495Zm7.658.562-.61.61V63h-1.693v-9h1.693v4.986l.328-.421 1.624-1.905h2.033l-2.291 2.643 2.49 3.697h-1.945l-1.629-2.543Zm9.504-5.988 2.191 6.187 2.18-6.187h2.308V63h-1.763v-2.332l.175-4.025L145.137 63h-1.207l-2.297-6.352.176 4.02V63h-1.758v-8.531h2.297Zm11.021 8.648c-.93 0-1.687-.285-2.273-.855-.582-.57-.873-1.33-.873-2.28v-.164c0-.636.123-1.205.369-1.705.246-.504.594-.89 1.043-1.16.453-.273.969-.41 1.547-.41.867 0 1.548.273 2.045.82.5.547.75 1.322.75 2.327v.69h-4.038c.055.415.219.747.493.997.277.25.627.375 1.048.375.653 0 1.163-.236 1.53-.709l.832.932c-.254.359-.598.64-1.031.843-.434.2-.915.3-1.442.3Zm-.193-5.203c-.336 0-.61.113-.821.34-.207.227-.339.55-.398.973h2.355v-.135c-.007-.375-.109-.664-.304-.867-.196-.207-.473-.31-.832-.31Zm7.201 3.334c0-.207-.104-.37-.311-.486-.203-.121-.531-.229-.984-.322-1.508-.317-2.262-.958-2.262-1.922 0-.563.233-1.032.698-1.407.468-.379 1.08-.568 1.834-.568.804 0 1.447.19 1.927.568.485.38.727.871.727 1.477h-1.694a.81.81 0 0 0-.234-.598c-.156-.16-.4-.24-.732-.24-.285 0-.506.065-.662.193a.609.609 0 0 0-.235.492c0 .188.088.34.264.458.18.113.48.212.902.298.422.082.778.176 1.067.282.894.328 1.341.896 1.341 1.705 0 .578-.248 1.047-.744 1.406-.496.355-1.136.533-1.922.533a3.407 3.407 0 0 1-1.418-.281 2.405 2.405 0 0 1-.966-.78 1.82 1.82 0 0 1-.352-1.072h1.606c.015.301.127.532.334.692.207.16.484.24.832.24.324 0 .568-.06.732-.182a.58.58 0 0 0 .252-.486Zm6.176 0c0-.207-.104-.37-.311-.486-.203-.121-.531-.229-.984-.322-1.508-.317-2.262-.958-2.262-1.922 0-.563.233-1.032.697-1.407.469-.379 1.08-.568 1.834-.568.805 0 1.448.19 1.928.568.484.38.727.871.727 1.477h-1.694a.81.81 0 0 0-.234-.598c-.156-.16-.4-.24-.733-.24-.285 0-.505.065-.662.193a.61.61 0 0 0-.234.492c0 .188.088.34.264.458.179.113.48.212.902.298.422.082.777.176 1.066.282.895.328 1.342.896 1.342 1.705 0 .578-.248 1.047-.744 1.406-.496.355-1.137.533-1.922.533-.531 0-1.004-.094-1.418-.281a2.415 2.415 0 0 1-.967-.78 1.825 1.825 0 0 1-.351-1.072h1.605c.016.301.127.532.334.692.207.16.485.24.832.24.325 0 .569-.06.733-.182a.58.58 0 0 0 .252-.486Zm5.66 1.87c-.93 0-1.688-.286-2.274-.856-.582-.57-.873-1.33-.873-2.28v-.164c0-.636.123-1.205.37-1.705.246-.504.593-.89 1.043-1.16.453-.273.968-.41 1.546-.41.868 0 1.549.273 2.045.82.5.547.75 1.322.75 2.327v.69h-4.037c.055.415.219.747.492.997.278.25.627.375 1.049.375.653 0 1.162-.236 1.53-.709l.832.932c-.254.359-.598.64-1.032.843a3.41 3.41 0 0 1-1.441.3Zm-.193-5.204c-.336 0-.61.113-.821.34-.207.227-.34.55-.398.973h2.355v-.135c-.008-.375-.109-.664-.304-.867-.196-.207-.473-.31-.832-.31Zm5.326-1.254.052.733c.454-.567 1.061-.85 1.823-.85.672 0 1.172.197 1.5.592.328.394.496.984.504 1.77V63h-1.694v-4.055c0-.36-.078-.619-.234-.779-.156-.164-.416-.246-.779-.246-.477 0-.834.203-1.073.61V63h-1.693v-6.34h1.594Zm4.922 3.123c0-.973.23-1.756.691-2.35.465-.593 1.09-.89 1.875-.89.695 0 1.236.238 1.623.715l.07-.598h1.535v6.13c0 .554-.126 1.036-.38 1.446a2.41 2.41 0 0 1-1.061.938c-.457.215-.992.322-1.605.322a3.45 3.45 0 0 1-1.36-.281c-.441-.184-.775-.422-1.002-.715l.75-1.031c.422.472.934.709 1.535.709.45 0 .799-.121 1.049-.363.25-.239.375-.579.375-1.02v-.34c-.39.442-.904.662-1.541.662-.761 0-1.379-.297-1.851-.89-.469-.598-.703-1.39-.703-2.373v-.07Zm1.693.123c0 .575.115 1.026.346 1.354.23.324.547.486.949.486.515 0 .885-.193 1.107-.58V58.5c-.226-.387-.592-.58-1.095-.58-.407 0-.727.166-.961.498-.231.332-.346.828-.346 1.488Zm8.326 3.211c-.93 0-1.687-.285-2.273-.855-.582-.57-.873-1.33-.873-2.28v-.164c0-.636.123-1.205.369-1.705.246-.504.594-.89 1.043-1.16.453-.273.968-.41 1.547-.41.867 0 1.548.273 2.045.82.5.547.75 1.322.75 2.327v.69h-4.038c.055.415.219.747.493.997.277.25.627.375 1.048.375.653 0 1.163-.236 1.53-.709l.832.932c-.254.359-.598.64-1.031.843-.434.2-.915.3-1.442.3Zm-.193-5.203c-.336 0-.61.113-.821.34-.207.227-.339.55-.398.973h2.355v-.135c-.007-.375-.109-.664-.304-.867-.196-.207-.473-.31-.832-.31Zm7.33.334a4.62 4.62 0 0 0-.61-.047c-.64 0-1.06.217-1.259.65V63h-1.694v-6.34h1.6l.047.756c.34-.582.81-.873 1.412-.873.187 0 .363.025.527.076l-.023 1.629Z" fill="#fff"/><path d="M88.12 77.549h-2.005V81h-1.13v-8.531h2.824c.96 0 1.699.219 2.214.656.52.438.78 1.074.78 1.91 0 .531-.145.994-.434 1.389-.285.394-.683.69-1.195.885l2.004 3.62V81H89.97l-1.852-3.451Zm-2.005-.92h1.729c.558 0 1.002-.145 1.33-.434.332-.289.498-.675.498-1.16 0-.527-.158-.931-.475-1.213-.312-.281-.765-.424-1.36-.428h-1.722v3.235Zm8.73 4.488c-.859 0-1.558-.281-2.097-.844-.539-.566-.809-1.322-.809-2.267v-.2c0-.628.12-1.189.358-1.681a2.815 2.815 0 0 1 1.008-1.16 2.535 2.535 0 0 1 1.406-.422c.824 0 1.465.271 1.922.814.457.543.685 1.32.685 2.332v.452h-4.295c.016.625.198 1.13.545 1.517.352.383.797.574 1.336.574.383 0 .707-.078.973-.234.266-.156.498-.363.697-.621l.662.516c-.53.816-1.328 1.224-2.39 1.224Zm-.134-5.683c-.438 0-.805.16-1.102.48-.296.317-.48.762-.55 1.336h3.175v-.082c-.03-.55-.18-.977-.445-1.277-.266-.305-.625-.457-1.078-.457Zm9.223 2.466c0 .965-.221 1.743-.663 2.332-.441.59-1.039.885-1.792.885-.77 0-1.375-.244-1.817-.732v3.052h-1.084V74.66h.99l.053.703c.441-.547 1.055-.82 1.84-.82.762 0 1.363.287 1.805.861.445.575.668 1.373.668 2.397v.1Zm-1.084-.123c0-.715-.153-1.279-.457-1.693-.305-.414-.723-.621-1.254-.621-.657 0-1.149.29-1.477.873v3.03c.324.577.82.866 1.488.866.52 0 .932-.205 1.237-.615.308-.414.463-1.027.463-1.84ZM106.494 81h-1.084v-9h1.084v9Zm3.815-1.588 1.476-4.752h1.16l-2.549 7.319c-.394 1.054-1.021 1.582-1.88 1.582l-.205-.018-.405-.076v-.88l.293.024c.367 0 .653-.074.856-.222.207-.149.377-.42.509-.815l.241-.644-2.262-6.27h1.184l1.582 4.752Zm12.199.094 1.219-4.846h1.084L122.965 81h-.879l-1.541-4.805-1.5 4.805h-.879l-1.84-6.34h1.078l1.248 4.746 1.477-4.746h.873l1.506 4.846ZM127.096 81h-1.084v-6.34h1.084V81Zm-1.172-8.022c0-.175.053-.324.158-.445.109-.12.27-.181.48-.181.211 0 .372.06.481.181.109.121.164.27.164.445a.62.62 0 0 1-.164.44c-.109.117-.27.176-.481.176-.21 0-.371-.059-.48-.176a.635.635 0 0 1-.158-.44Zm4.383.147v1.535h1.183v.838h-1.183v3.932c0 .254.052.445.158.574.105.125.285.187.539.187.125 0 .297-.023.516-.07V81a3.151 3.151 0 0 1-.832.117c-.485 0-.85-.146-1.096-.44-.246-.292-.369-.708-.369-1.247v-3.932h-1.155v-.838h1.155v-1.535h1.084Zm3.539 2.303c.48-.59 1.105-.885 1.875-.885 1.34 0 2.015.756 2.027 2.267V81h-1.084v-4.195c-.004-.457-.109-.795-.316-1.014-.203-.219-.522-.328-.955-.328-.352 0-.661.094-.926.281a1.903 1.903 0 0 0-.621.738V81h-1.084v-9h1.084v3.428ZM140.549 81h-1.084v-6.34h1.084V81Zm-1.172-8.022c0-.175.053-.324.158-.445.11-.12.27-.181.481-.181.211 0 .371.06.48.181.109.121.164.27.164.445a.62.62 0 0 1-.164.44c-.109.117-.269.176-.48.176-.211 0-.371-.059-.481-.176a.635.635 0 0 1-.158-.44Zm3.937 1.682.036.797c.484-.61 1.117-.914 1.898-.914 1.34 0 2.016.756 2.027 2.267V81h-1.084v-4.195c-.003-.457-.109-.795-.316-1.014-.203-.219-.521-.328-.955-.328-.352 0-.66.094-.926.281a1.911 1.911 0 0 0-.621.738V81h-1.084v-6.34h1.025ZM157.365 81h-5.59v-.78l2.954-3.28c.437-.497.738-.899.902-1.208.168-.312.252-.634.252-.966 0-.446-.135-.81-.404-1.096-.27-.285-.629-.428-1.079-.428-.539 0-.959.154-1.259.463-.297.305-.446.73-.446 1.277h-1.084c0-.785.252-1.42.756-1.904.508-.484 1.186-.726 2.033-.726.793 0 1.42.209 1.881.626.461.415.692.967.692 1.659 0 .84-.535 1.84-1.606 3l-2.285 2.478h4.283V81Zm5.321-5.572c.48-.59 1.105-.885 1.875-.885 1.339 0 2.015.756 2.027 2.267V81h-1.084v-4.195c-.004-.457-.109-.795-.316-1.014-.204-.219-.522-.328-.956-.328-.351 0-.66.094-.925.281a1.903 1.903 0 0 0-.621.738V81h-1.084v-9h1.084v3.428Zm5.238 2.344c0-.622.121-1.18.363-1.676a2.755 2.755 0 0 1 1.02-1.149c.437-.27.935-.404 1.494-.404.863 0 1.56.299 2.092.896.535.598.802 1.393.802 2.385v.076c0 .618-.119 1.172-.357 1.664-.234.489-.572.87-1.014 1.143-.437.274-.941.41-1.512.41-.859 0-1.556-.299-2.091-.896-.532-.598-.797-1.389-.797-2.373v-.076Zm1.09.128c0 .703.162 1.268.486 1.694.328.425.766.638 1.312.638.551 0 .989-.214 1.313-.644.324-.434.486-1.04.486-1.816 0-.696-.166-1.258-.498-1.688a1.563 1.563 0 0 0-1.312-.65c-.535 0-.967.213-1.295.638-.328.426-.492 1.035-.492 1.828Zm9.955 2.473c-.422.496-1.041.744-1.858.744-.675 0-1.191-.195-1.547-.586-.351-.394-.529-.976-.533-1.746V74.66h1.084v4.096c0 .96.391 1.441 1.172 1.441.828 0 1.379-.308 1.652-.925V74.66h1.084V81h-1.031l-.023-.627Zm5.771-4.74a3.254 3.254 0 0 0-.533-.041c-.711 0-1.193.302-1.447.908V81h-1.084v-6.34h1.054l.018.733c.356-.567.859-.85 1.512-.85.211 0 .371.027.48.082v1.008Zm4.694 3.685a.79.79 0 0 0-.334-.68c-.219-.163-.604-.304-1.155-.421-.547-.117-.982-.258-1.306-.422-.321-.164-.559-.36-.715-.586a1.41 1.41 0 0 1-.229-.809c0-.52.219-.959.657-1.318.441-.36 1.003-.539 1.687-.539.719 0 1.301.185 1.746.557.449.37.674.845.674 1.423h-1.09c0-.296-.127-.552-.381-.767-.25-.215-.566-.322-.949-.322-.394 0-.703.085-.926.257a.813.813 0 0 0-.334.674c0 .262.104.46.311.592.207.133.58.26 1.119.38.543.122.982.266 1.318.434.336.168.584.372.744.61.165.234.247.521.247.861a1.63 1.63 0 0 1-.68 1.365c-.453.34-1.041.51-1.764.51-.508 0-.957-.09-1.347-.27a2.216 2.216 0 0 1-.92-.75 1.838 1.838 0 0 1-.328-1.048h1.083c.02.363.165.652.434.867.274.211.633.316 1.078.316.41 0 .738-.082.985-.246.25-.168.375-.39.375-.668Z" fill="#AFC0D1"/><path stroke="#22303F" d="M11 102.5h240M11 173.5h240"/><circle cx="48" cy="139" r="24" fill="#25D366"/><path d="M48.004 124h-.008C39.726 124 33 130.727 33 139c0 3.281 1.057 6.323 2.856 8.792l-1.87 5.572 5.766-1.843A14.864 14.864 0 0 0 48.004 154C56.274 154 63 147.271 63 139s-6.726-15-14.996-15Zm8.728 21.182c-.362 1.022-1.798 1.869-2.944 2.117-.784.167-1.807.3-5.254-1.129-4.408-1.826-7.246-6.306-7.468-6.596-.212-.291-1.781-2.372-1.781-4.525 0-2.152 1.093-3.2 1.534-3.65.362-.37.96-.538 1.533-.538.186 0 .353.009.503.016.44.019.662.046.953.741.361.872 1.243 3.025 1.348 3.246.107.221.213.521.063.812-.14.3-.264.433-.485.688-.221.255-.431.45-.653.724-.202.238-.431.493-.176.933.255.432 1.136 1.87 2.434 3.025 1.674 1.49 3.032 1.967 3.517 2.169.362.15.793.114 1.058-.167.335-.362.75-.962 1.172-1.552.3-.424.678-.477 1.076-.327.405.141 2.548 1.2 2.989 1.42.44.221.73.326.838.512.105.185.105 1.057-.257 2.081ZM91.406 131.539l1.149-6.07h1.752L92.414 134h-1.77l-1.388-5.707L87.867 134h-1.77l-1.892-8.531h1.752l1.154 6.058 1.407-6.058h1.488l1.4 6.07Zm5.397-3.187c.449-.54 1.013-.809 1.693-.809 1.375 0 2.072.799 2.092 2.396V134h-1.694v-4.014c0-.363-.078-.631-.234-.802-.156-.176-.416-.264-.78-.264-.495 0-.855.191-1.077.574V134h-1.694v-9h1.694v3.352Zm8.736 5.648a1.879 1.879 0 0 1-.17-.568c-.41.457-.943.685-1.599.685-.622 0-1.137-.179-1.547-.539a1.734 1.734 0 0 1-.61-1.359c0-.672.248-1.188.744-1.547.5-.36 1.221-.541 2.163-.545h.779v-.363c0-.293-.076-.528-.229-.703-.148-.176-.384-.264-.709-.264-.285 0-.509.068-.673.205-.161.137-.241.324-.241.562h-1.693c0-.367.113-.707.34-1.019.226-.313.547-.557.961-.733a3.48 3.48 0 0 1 1.394-.269c.781 0 1.401.197 1.858.592.461.39.691.941.691 1.652v2.748c.004.602.088 1.057.252 1.365v.1h-1.711Zm-1.4-1.178c.25 0 .48-.054.691-.164.211-.113.367-.263.469-.451v-1.09h-.633c-.848 0-1.299.293-1.354.879l-.005.1c0 .211.074.384.222.521.149.137.352.205.61.205Zm6.187-6.72v1.558h1.084v1.242h-1.084v3.164c0 .235.045.403.135.504.09.102.262.153.516.153.187 0 .353-.014.498-.041v1.283a3.506 3.506 0 0 1-1.026.152c-1.187 0-1.793-.599-1.816-1.799v-3.416h-.926v-1.242h.926v-1.558h1.693Zm5.461 6.146c0-.207-.103-.369-.31-.486-.204-.121-.532-.229-.985-.323-1.508-.316-2.262-.957-2.262-1.921 0-.563.233-1.032.698-1.407.468-.379 1.08-.568 1.834-.568.804 0 1.447.189 1.927.568.485.379.727.871.727 1.477h-1.693a.808.808 0 0 0-.235-.598c-.156-.16-.4-.24-.732-.24-.285 0-.506.064-.662.193a.612.612 0 0 0-.235.493c0 .187.088.339.264.457.18.113.481.212.902.298.422.082.778.176 1.067.282.894.328 1.342.896 1.342 1.705 0 .578-.248 1.047-.745 1.406-.496.355-1.136.533-1.921.533-.532 0-1.004-.094-1.418-.281a2.4 2.4 0 0 1-.967-.779 1.822 1.822 0 0 1-.352-1.073h1.606c.015.301.127.532.334.692.207.16.484.24.832.24.324 0 .568-.061.732-.182a.58.58 0 0 0 .252-.486Zm7.67-.006h-3.082l-.586 1.758h-1.869l3.176-8.531h1.629l3.193 8.531h-1.869l-.592-1.758Zm-2.607-1.424h2.132l-1.072-3.193-1.06 3.193Zm11.179.071c0 .976-.222 1.759-.668 2.349-.441.586-1.039.879-1.793.879-.64 0-1.158-.222-1.552-.668v2.989h-1.694v-8.778h1.571l.058.621c.41-.492.945-.738 1.606-.738.781 0 1.388.289 1.822.867.433.578.65 1.375.65 2.391v.088Zm-1.693-.123c0-.59-.106-1.045-.316-1.366-.208-.32-.51-.48-.909-.48-.531 0-.896.203-1.095.609v2.596c.207.418.576.627 1.107.627.809 0 1.213-.662 1.213-1.986Zm8.455.123c0 .976-.223 1.759-.668 2.349-.441.586-1.039.879-1.793.879-.641 0-1.158-.222-1.553-.668v2.989h-1.693v-8.778h1.57l.059.621c.41-.492.945-.738 1.605-.738.782 0 1.389.289 1.823.867.433.578.65 1.375.65 2.391v.088Zm-1.693-.123c0-.59-.106-1.045-.317-1.366-.207-.32-.51-.48-.908-.48-.531 0-.896.203-1.096.609v2.596c.207.418.577.627 1.108.627.808 0 1.213-.662 1.213-1.986Z" fill="#fff"/><path d="m86.83 149.311.164 1.125.24-1.014 1.688-5.953h.95l1.646 5.953.234 1.031.182-1.148 1.324-5.836h1.13L92.32 152h-1.025l-1.758-6.217-.135-.65-.134.65L87.445 152H86.42l-2.063-8.531h1.125l1.348 5.842Zm11.578-2.678a3.178 3.178 0 0 0-.533-.041c-.71 0-1.193.303-1.447.908v4.5h-1.084v-6.34h1.054l.018.733c.356-.567.86-.85 1.512-.85.21 0 .37.027.48.082v1.008Zm2.18 5.367h-1.084v-6.34h1.084V152Zm-1.172-8.021c0-.176.053-.325.158-.446.11-.121.27-.181.481-.181.211 0 .371.06.48.181.11.121.164.27.164.446a.616.616 0 0 1-.164.439c-.109.117-.269.176-.48.176-.211 0-.371-.059-.48-.176a.633.633 0 0 1-.159-.439Zm4.383.146v1.535h1.183v.838h-1.183v3.932c0 .254.053.445.158.574.105.125.285.187.539.187.125 0 .297-.023.516-.07V152a3.15 3.15 0 0 1-.832.117c-.485 0-.85-.146-1.096-.439-.246-.293-.369-.709-.369-1.248v-3.932h-1.154v-.838h1.154v-1.535h1.084Zm5.086 7.992c-.86 0-1.559-.281-2.098-.844-.539-.566-.808-1.322-.808-2.267v-.199c0-.629.119-1.19.357-1.682a2.81 2.81 0 0 1 1.008-1.16 2.535 2.535 0 0 1 1.406-.422c.824 0 1.465.271 1.922.814.457.543.685 1.321.685 2.332v.452h-4.295c.016.625.198 1.13.545 1.517.352.383.797.574 1.336.574.383 0 .707-.078.973-.234.266-.156.498-.363.697-.621l.662.516c-.531.816-1.328 1.224-2.39 1.224Zm-.135-5.683c-.438 0-.805.16-1.102.48-.296.316-.48.762-.55 1.336h3.175v-.082c-.031-.551-.179-.977-.445-1.277-.266-.305-.625-.457-1.078-.457ZM119.508 152c-.063-.125-.113-.348-.153-.668-.503.523-1.105.785-1.804.785-.625 0-1.139-.176-1.541-.527a1.728 1.728 0 0 1-.598-1.348c0-.66.25-1.172.75-1.535.504-.367 1.211-.551 2.121-.551h1.055v-.498c0-.379-.113-.679-.34-.902-.227-.227-.56-.34-1.002-.34-.387 0-.711.098-.973.293-.261.195-.392.432-.392.709h-1.09c0-.316.111-.621.334-.914.227-.297.531-.531.914-.703a3.097 3.097 0 0 1 1.272-.258c.73 0 1.302.184 1.716.551.414.363.629.865.645 1.506v2.918c0 .582.074 1.044.223 1.388V152h-1.137Zm-1.799-.826c.34 0 .662-.088.967-.264.304-.176.525-.404.662-.685v-1.301h-.85c-1.328 0-1.992.388-1.992 1.166 0 .34.113.605.34.797.226.191.518.287.873.287Zm8.408-5.514.029.703c.465-.547 1.092-.82 1.881-.82.887 0 1.491.34 1.811 1.019a2.42 2.42 0 0 1 .82-.738c.34-.187.74-.281 1.201-.281 1.391 0 2.098.736 2.121 2.209V152h-1.084v-4.184c0-.453-.103-.791-.31-1.013-.207-.227-.555-.34-1.043-.34-.402 0-.736.121-1.002.363-.266.238-.42.561-.463.967V152h-1.09v-4.154c0-.922-.451-1.383-1.353-1.383-.711 0-1.197.303-1.459.908V152h-1.084v-6.34h1.025Zm12.135 6.457c-.859 0-1.559-.281-2.098-.844-.539-.566-.808-1.322-.808-2.267v-.199c0-.629.119-1.19.357-1.682a2.81 2.81 0 0 1 1.008-1.16 2.537 2.537 0 0 1 1.406-.422c.824 0 1.465.271 1.922.814.457.543.686 1.321.686 2.332v.452h-4.295c.015.625.197 1.13.545 1.517.351.383.796.574 1.336.574.382 0 .707-.078.972-.234.266-.156.498-.363.697-.621l.663.516c-.532.816-1.329 1.224-2.391 1.224Zm-.135-5.683c-.437 0-.805.16-1.101.48-.297.316-.481.762-.551 1.336h3.176v-.082c-.032-.551-.18-.977-.446-1.277-.265-.305-.625-.457-1.078-.457Zm7.559 3.884a.788.788 0 0 0-.334-.679c-.219-.164-.604-.305-1.154-.422-.547-.117-.983-.258-1.307-.422-.32-.164-.559-.359-.715-.586a1.418 1.418 0 0 1-.228-.809c0-.519.218-.959.656-1.318.441-.359 1.004-.539 1.687-.539.719 0 1.301.186 1.746.557.45.371.674.845.674 1.423h-1.09c0-.296-.127-.552-.381-.767-.25-.215-.566-.322-.949-.322-.394 0-.703.086-.926.257a.814.814 0 0 0-.334.674c0 .262.104.459.311.592.207.133.58.26 1.119.381.543.121.983.266 1.319.433.335.168.584.372.744.61.164.234.246.521.246.861 0 .567-.227 1.022-.68 1.365-.453.34-1.041.51-1.764.51-.507 0-.957-.09-1.347-.269a2.22 2.22 0 0 1-.92-.75 1.84 1.84 0 0 1-.328-1.049h1.084c.019.363.164.652.433.867.274.211.633.316 1.078.316.411 0 .739-.082.985-.246.25-.168.375-.39.375-.668Zm6.187 0c0-.293-.111-.519-.334-.679-.218-.164-.603-.305-1.154-.422-.547-.117-.982-.258-1.307-.422-.32-.164-.558-.359-.714-.586a1.411 1.411 0 0 1-.229-.809c0-.519.219-.959.656-1.318.442-.359 1.004-.539 1.688-.539.719 0 1.301.186 1.746.557.449.371.674.845.674 1.423h-1.09c0-.296-.127-.552-.381-.767-.25-.215-.566-.322-.949-.322-.395 0-.703.086-.926.257a.812.812 0 0 0-.334.674c0 .262.103.459.311.592.207.133.58.26 1.119.381.543.121.982.266 1.318.433.336.168.584.372.744.61.164.234.246.521.246.861 0 .567-.226 1.022-.679 1.365-.454.34-1.041.51-1.764.51-.508 0-.957-.09-1.348-.269-.39-.18-.697-.43-.92-.75a1.847 1.847 0 0 1-.328-1.049h1.084c.02.363.164.652.434.867.273.211.633.316 1.078.316.41 0 .738-.082.984-.246.25-.168.375-.39.375-.668Zm6.41 1.682c-.062-.125-.113-.348-.152-.668-.504.523-1.105.785-1.805.785-.625 0-1.138-.176-1.541-.527a1.73 1.73 0 0 1-.597-1.348c0-.66.25-1.172.75-1.535.504-.367 1.211-.551 2.121-.551h1.055v-.498c0-.379-.114-.679-.34-.902-.227-.227-.561-.34-1.002-.34-.387 0-.711.098-.973.293-.262.195-.393.432-.393.709h-1.089c0-.316.111-.621.334-.914a2.31 2.31 0 0 1 .914-.703c.386-.172.81-.258 1.271-.258.731 0 1.303.184 1.717.551.414.363.629.865.645 1.506v2.918c0 .582.074 1.044.222 1.388V152h-1.137Zm-1.798-.826a1.9 1.9 0 0 0 .966-.264c.305-.176.526-.404.663-.685v-1.301h-.85c-1.328 0-1.992.388-1.992 1.166 0 .34.113.605.34.797.226.191.517.287.873.287Zm4.154-2.397c0-.988.228-1.773.685-2.355.457-.586 1.063-.879 1.817-.879.773 0 1.377.273 1.81.82l.053-.703h.99v6.188c0 .82-.244 1.466-.732 1.939-.484.473-1.137.709-1.957.709-.457 0-.904-.098-1.342-.293-.437-.195-.771-.463-1.002-.803l.563-.65c.465.574 1.033.861 1.705.861.527 0 .937-.148 1.23-.445.297-.297.446-.715.446-1.254v-.545c-.434.5-1.026.75-1.776.75-.742 0-1.344-.299-1.805-.896-.457-.598-.685-1.412-.685-2.444Zm1.09.123c0 .715.146 1.278.439 1.688.293.406.703.609 1.231.609.683 0 1.185-.31 1.506-.931v-2.895c-.333-.605-.831-.908-1.495-.908-.527 0-.939.205-1.236.615-.297.41-.445 1.018-.445 1.822Zm8.537 3.217c-.86 0-1.559-.281-2.098-.844-.539-.566-.808-1.322-.808-2.267v-.199c0-.629.119-1.19.357-1.682a2.81 2.81 0 0 1 1.008-1.16 2.535 2.535 0 0 1 1.406-.422c.824 0 1.465.271 1.922.814.457.543.686 1.321.686 2.332v.452h-4.295c.015.625.197 1.13.545 1.517.351.383.796.574 1.335.574.383 0 .707-.078.973-.234.266-.156.498-.363.697-.621l.662.516c-.531.816-1.328 1.224-2.39 1.224Zm-.135-5.683c-.437 0-.805.16-1.101.48-.297.316-.481.762-.551 1.336h3.176v-.082c-.032-.551-.18-.977-.446-1.277-.265-.305-.625-.457-1.078-.457Z" fill="#AFC0D1"/><path stroke="#22303F" d="M11 173.5h240M11 244.5h240"/><circle cx="48" cy="210" r="24" fill="#8F5DB7"/><path d="M48.003 195h-.007C39.726 195 33 201.728 33 210a14.889 14.889 0 0 0 2.856 8.792l-1.87 5.572 5.766-1.843A14.868 14.868 0 0 0 48.002 225C56.274 225 63 218.271 63 210s-6.726-15-14.997-15Zm8.357 21.892v.01c-.723 1.319-2.078 2.775-3.472 2.31l-.014-.02c-1.414-.411-4.746-2.186-6.852-3.919-4.481-3.664-5.887-8.513-6.652-10.034-.448-1.443.953-2.844 2.233-3.593h.014c.615-.333 1.207-.222 1.6.271.375.524 1.11 1.206 2.205 3.185.41.755.155 1.523-.247 1.845l-.805.665c-.41.34-.351.971-.351.971s1.193 4.667 5.652 5.847c0 0 .611.058.938-.367l.644-.833c.308-.416 1.052-.679 1.783-.256.986.575 2.24 1.47 3.072 2.281.467.395.574.999.252 1.637Zm-7.477-13.237c-.568-.041-.509-.937.059-.895 3.89.293 5.96 3.058 5.887 6.415-.007.596-.879.568-.865-.021.07-2.94-1.707-5.242-5.08-5.499Zm3.722 4.718c.027.596-.839.638-.866.041-.074-1.523-.762-2.268-2.185-2.351-.576-.034-.523-.929.047-.895 1.87.103 2.91 1.213 3.004 3.205Zm3.648 1.718c-.04-5.651-3.68-8.731-8.1-8.766-.57-.007-.57-.895 0-.895 4.942.034 8.916 3.565 8.965 9.654.008.596-.865.603-.865.007ZM87.914 202.885l1.934-6.416h1.957L88.834 205H87l-2.959-8.531h1.951l1.922 6.416ZM94.29 205h-1.7v-6.34h1.7V205Zm-1.799-7.98c0-.254.084-.463.252-.627.172-.164.404-.247.697-.247.29 0 .52.083.692.247a.83.83 0 0 1 .258.627.826.826 0 0 1-.264.632c-.172.164-.4.246-.686.246-.285 0-.515-.082-.691-.246a.836.836 0 0 1-.258-.632Zm8.912 4.869c0 1.015-.216 1.808-.65 2.379-.434.566-1.04.849-1.816.849-.688 0-1.237-.263-1.647-.791l-.076.674H95.69v-9h1.693v3.229c.39-.458.904-.686 1.54-.686.774 0 1.38.285 1.817.855.442.567.662 1.366.662 2.397v.094Zm-1.693-.123c0-.641-.102-1.108-.305-1.401-.203-.297-.506-.445-.908-.445-.539 0-.91.221-1.113.662v2.502c.207.445.582.668 1.125.668.547 0 .906-.27 1.078-.809.082-.257.123-.65.123-1.177Zm5.66 3.351c-.93 0-1.687-.285-2.273-.855-.582-.571-.873-1.33-.873-2.28v-.164c0-.636.123-1.205.369-1.705.246-.504.594-.89 1.043-1.16a2.94 2.94 0 0 1 1.547-.41c.867 0 1.548.273 2.045.82.5.547.75 1.323.75 2.326v.692h-4.038c.055.414.219.746.493.996.277.25.627.375 1.048.375.653 0 1.163-.236 1.53-.709l.832.932c-.254.359-.598.64-1.031.843-.434.2-.915.299-1.442.299Zm-.193-5.203c-.336 0-.61.113-.821.34-.207.226-.339.551-.398.973h2.355v-.135c-.007-.375-.109-.664-.304-.867-.196-.207-.473-.311-.832-.311Zm7.33.334a4.658 4.658 0 0 0-.61-.047c-.64 0-1.06.217-1.259.651V205h-1.694v-6.34h1.6l.047.756c.34-.582.81-.873 1.412-.873.187 0 .363.025.527.076l-.023 1.629Z" fill="#fff"/><path d="m86.83 220.311.164 1.125.24-1.014 1.688-5.953h.95l1.646 5.953.234 1.031.182-1.148 1.324-5.836h1.13L92.32 223h-1.025l-1.758-6.217-.135-.65-.134.65L87.445 223H86.42l-2.063-8.531h1.125l1.348 5.842Zm11.578-2.678a3.178 3.178 0 0 0-.533-.041c-.71 0-1.193.303-1.447.908v4.5h-1.084v-6.34h1.054l.018.733c.356-.567.86-.85 1.512-.85.21 0 .37.027.48.082v1.008Zm2.18 5.367h-1.084v-6.34h1.084V223Zm-1.172-8.021c0-.176.053-.325.158-.446.11-.121.27-.181.481-.181.211 0 .371.06.48.181.11.121.164.27.164.446a.616.616 0 0 1-.164.439c-.109.117-.269.176-.48.176-.211 0-.371-.059-.48-.176a.633.633 0 0 1-.159-.439Zm4.383.146v1.535h1.183v.838h-1.183v3.932c0 .254.053.445.158.574.105.125.285.187.539.187.125 0 .297-.023.516-.07V223a3.15 3.15 0 0 1-.832.117c-.485 0-.85-.146-1.096-.439-.246-.293-.369-.709-.369-1.248v-3.932h-1.154v-.838h1.154v-1.535h1.084Zm5.086 7.992c-.86 0-1.559-.281-2.098-.844-.539-.566-.808-1.322-.808-2.267v-.199c0-.629.119-1.19.357-1.682a2.81 2.81 0 0 1 1.008-1.16 2.535 2.535 0 0 1 1.406-.422c.824 0 1.465.271 1.922.814.457.543.685 1.321.685 2.332v.452h-4.295c.016.625.198 1.13.545 1.517.352.383.797.574 1.336.574.383 0 .707-.078.973-.234.266-.156.498-.363.697-.621l.662.516c-.531.816-1.328 1.224-2.39 1.224Zm-.135-5.683c-.438 0-.805.16-1.102.48-.296.316-.48.762-.55 1.336h3.175v-.082c-.031-.551-.179-.977-.445-1.277-.266-.305-.625-.457-1.078-.457ZM119.508 223c-.063-.125-.113-.348-.153-.668-.503.523-1.105.785-1.804.785-.625 0-1.139-.176-1.541-.527a1.728 1.728 0 0 1-.598-1.348c0-.66.25-1.172.75-1.535.504-.367 1.211-.551 2.121-.551h1.055v-.498c0-.379-.113-.679-.34-.902-.227-.227-.56-.34-1.002-.34-.387 0-.711.098-.973.293-.261.195-.392.432-.392.709h-1.09c0-.316.111-.621.334-.914.227-.297.531-.531.914-.703a3.097 3.097 0 0 1 1.272-.258c.73 0 1.302.184 1.716.551.414.363.629.865.645 1.506v2.918c0 .582.074 1.044.223 1.388V223h-1.137Zm-1.799-.826c.34 0 .662-.088.967-.264.304-.176.525-.404.662-.685v-1.301h-.85c-1.328 0-1.992.388-1.992 1.166 0 .34.113.605.34.797.226.191.518.287.873.287Zm8.408-5.514.029.703c.465-.547 1.092-.82 1.881-.82.887 0 1.491.34 1.811 1.019a2.42 2.42 0 0 1 .82-.738c.34-.187.74-.281 1.201-.281 1.391 0 2.098.736 2.121 2.209V223h-1.084v-4.184c0-.453-.103-.791-.31-1.013-.207-.227-.555-.34-1.043-.34-.402 0-.736.121-1.002.363-.266.238-.42.561-.463.967V223h-1.09v-4.154c0-.922-.451-1.383-1.353-1.383-.711 0-1.197.303-1.459.908V223h-1.084v-6.34h1.025Zm12.135 6.457c-.859 0-1.559-.281-2.098-.844-.539-.566-.808-1.322-.808-2.267v-.199c0-.629.119-1.19.357-1.682a2.81 2.81 0 0 1 1.008-1.16 2.537 2.537 0 0 1 1.406-.422c.824 0 1.465.271 1.922.814.457.543.686 1.321.686 2.332v.452h-4.295c.015.625.197 1.13.545 1.517.351.383.796.574 1.336.574.382 0 .707-.078.972-.234.266-.156.498-.363.697-.621l.663.516c-.532.816-1.329 1.224-2.391 1.224Zm-.135-5.683c-.437 0-.805.16-1.101.48-.297.316-.481.762-.551 1.336h3.176v-.082c-.032-.551-.18-.977-.446-1.277-.265-.305-.625-.457-1.078-.457Zm7.559 3.884a.788.788 0 0 0-.334-.679c-.219-.164-.604-.305-1.154-.422-.547-.117-.983-.258-1.307-.422-.32-.164-.559-.359-.715-.586a1.418 1.418 0 0 1-.228-.809c0-.519.218-.959.656-1.318.441-.359 1.004-.539 1.687-.539.719 0 1.301.186 1.746.557.45.371.674.845.674 1.423h-1.09c0-.296-.127-.552-.381-.767-.25-.215-.566-.322-.949-.322-.394 0-.703.086-.926.257a.814.814 0 0 0-.334.674c0 .262.104.459.311.592.207.133.58.26 1.119.381.543.121.983.266 1.319.433.335.168.584.372.744.61.164.234.246.521.246.861 0 .567-.227 1.022-.68 1.365-.453.34-1.041.51-1.764.51-.507 0-.957-.09-1.347-.269a2.22 2.22 0 0 1-.92-.75 1.84 1.84 0 0 1-.328-1.049h1.084c.019.363.164.652.433.867.274.211.633.316 1.078.316.411 0 .739-.082.985-.246.25-.168.375-.39.375-.668Zm6.187 0c0-.293-.111-.519-.334-.679-.218-.164-.603-.305-1.154-.422-.547-.117-.982-.258-1.307-.422-.32-.164-.558-.359-.714-.586a1.411 1.411 0 0 1-.229-.809c0-.519.219-.959.656-1.318.442-.359 1.004-.539 1.688-.539.719 0 1.301.186 1.746.557.449.371.674.845.674 1.423h-1.09c0-.296-.127-.552-.381-.767-.25-.215-.566-.322-.949-.322-.395 0-.703.086-.926.257a.812.812 0 0 0-.334.674c0 .262.103.459.311.592.207.133.58.26 1.119.381.543.121.982.266 1.318.433.336.168.584.372.744.61.164.234.246.521.246.861 0 .567-.226 1.022-.679 1.365-.454.34-1.041.51-1.764.51-.508 0-.957-.09-1.348-.269-.39-.18-.697-.43-.92-.75a1.847 1.847 0 0 1-.328-1.049h1.084c.02.363.164.652.434.867.273.211.633.316 1.078.316.41 0 .738-.082.984-.246.25-.168.375-.39.375-.668Zm6.41 1.682c-.062-.125-.113-.348-.152-.668-.504.523-1.105.785-1.805.785-.625 0-1.138-.176-1.541-.527a1.73 1.73 0 0 1-.597-1.348c0-.66.25-1.172.75-1.535.504-.367 1.211-.551 2.121-.551h1.055v-.498c0-.379-.114-.679-.34-.902-.227-.227-.561-.34-1.002-.34-.387 0-.711.098-.973.293-.262.195-.393.432-.393.709h-1.089c0-.316.111-.621.334-.914a2.31 2.31 0 0 1 .914-.703c.386-.172.81-.258 1.271-.258.731 0 1.303.184 1.717.551.414.363.629.865.645 1.506v2.918c0 .582.074 1.044.222 1.388V223h-1.137Zm-1.798-.826a1.9 1.9 0 0 0 .966-.264c.305-.176.526-.404.663-.685v-1.301h-.85c-1.328 0-1.992.388-1.992 1.166 0 .34.113.605.34.797.226.191.517.287.873.287Zm4.154-2.397c0-.988.228-1.773.685-2.355.457-.586 1.063-.879 1.817-.879.773 0 1.377.273 1.81.82l.053-.703h.99v6.188c0 .82-.244 1.466-.732 1.939-.484.473-1.137.709-1.957.709-.457 0-.904-.098-1.342-.293-.437-.195-.771-.463-1.002-.803l.563-.65c.465.574 1.033.861 1.705.861.527 0 .937-.148 1.23-.445.297-.297.446-.715.446-1.254v-.545c-.434.5-1.026.75-1.776.75-.742 0-1.344-.299-1.805-.896-.457-.598-.685-1.412-.685-2.444Zm1.09.123c0 .715.146 1.278.439 1.688.293.406.703.609 1.231.609.683 0 1.185-.31 1.506-.931v-2.895c-.333-.605-.831-.908-1.495-.908-.527 0-.939.205-1.236.615-.297.41-.445 1.018-.445 1.822Zm8.537 3.217c-.86 0-1.559-.281-2.098-.844-.539-.566-.808-1.322-.808-2.267v-.199c0-.629.119-1.19.357-1.682a2.81 2.81 0 0 1 1.008-1.16 2.535 2.535 0 0 1 1.406-.422c.824 0 1.465.271 1.922.814.457.543.686 1.321.686 2.332v.452h-4.295c.015.625.197 1.13.545 1.517.351.383.796.574 1.335.574.383 0 .707-.078.973-.234.266-.156.498-.363.697-.621l.662.516c-.531.816-1.328 1.224-2.39 1.224Zm-.135-5.683c-.437 0-.805.16-1.101.48-.297.316-.481.762-.551 1.336h3.176v-.082c-.032-.551-.18-.977-.446-1.277-.265-.305-.625-.457-1.078-.457Z" fill="#AFC0D1"/><path stroke="#22303F" d="M11 244.5h240"/><circle cx="48" cy="281" r="24" fill="#1B9DE2"/><path d="m42.771 286.976-.496 6.98c.71 0 1.017-.305 1.386-.671l3.329-3.181 6.898 5.051c1.265.705 2.156.334 2.497-1.164l4.528-21.215v-.001c.402-1.87-.675-2.601-1.908-2.143l-26.613 10.189c-1.816.705-1.788 1.718-.308 2.176l6.803 2.117 15.804-9.889c.744-.493 1.42-.22.864.272l-12.784 11.479ZM91.184 268.893H88.57V276h-1.757v-7.107h-2.579v-1.424h6.95v1.424Zm3.287 7.224c-.93 0-1.688-.285-2.274-.855-.582-.571-.873-1.33-.873-2.28v-.164c0-.636.123-1.205.37-1.705.245-.504.593-.89 1.042-1.16.453-.273.97-.41 1.547-.41.867 0 1.549.273 2.045.82.5.547.75 1.323.75 2.326v.692h-4.037c.055.414.219.746.492.996.278.25.627.375 1.049.375.652 0 1.162-.236 1.53-.709l.831.932c-.254.359-.597.64-1.03.843a3.4 3.4 0 0 1-1.442.299Zm-.194-5.203c-.336 0-.609.113-.82.34-.207.226-.34.551-.398.973h2.355v-.135c-.008-.375-.11-.664-.305-.867-.195-.207-.472-.311-.832-.311ZM99.832 276h-1.7v-9h1.7v9Zm4.318.117c-.929 0-1.687-.285-2.273-.855-.582-.571-.873-1.33-.873-2.28v-.164c0-.636.123-1.205.369-1.705.246-.504.594-.89 1.043-1.16a2.94 2.94 0 0 1 1.547-.41c.867 0 1.549.273 2.045.82.5.547.75 1.323.75 2.326v.692h-4.037c.054.414.218.746.492.996.277.25.627.375 1.049.375.652 0 1.162-.236 1.529-.709l.832.932c-.254.359-.598.64-1.031.843-.434.2-.914.299-1.442.299Zm-.193-5.203c-.336 0-.609.113-.82.34-.207.226-.34.551-.399.973h2.356v-.135c-.008-.375-.11-.664-.305-.867-.195-.207-.473-.311-.832-.311Zm3.522 1.869c0-.972.23-1.756.691-2.349.465-.594 1.09-.891 1.875-.891.695 0 1.236.238 1.623.715l.07-.598h1.535v6.129c0 .555-.127 1.037-.38 1.447-.25.41-.604.723-1.061.938-.457.215-.992.322-1.605.322-.465 0-.918-.094-1.36-.281-.441-.184-.775-.422-1.002-.715l.75-1.031c.422.472.934.709 1.535.709.45 0 .799-.121 1.049-.364.25-.238.375-.578.375-1.019v-.34c-.39.441-.904.662-1.541.662-.762 0-1.379-.297-1.851-.89-.469-.598-.703-1.389-.703-2.373v-.071Zm1.693.123c0 .574.115 1.026.346 1.354a1.1 1.1 0 0 0 .949.486c.515 0 .885-.193 1.107-.58V271.5c-.226-.387-.592-.58-1.095-.58-.407 0-.727.166-.961.498-.231.332-.346.828-.346 1.488Zm8.971-1.658a4.658 4.658 0 0 0-.61-.047c-.64 0-1.06.217-1.26.651V276h-1.693v-6.34h1.6l.047.756c.339-.582.81-.873 1.412-.873.187 0 .363.025.527.076l-.023 1.629Zm4.318 4.752a1.879 1.879 0 0 1-.17-.568c-.41.457-.943.685-1.6.685-.621 0-1.136-.179-1.546-.539a1.734 1.734 0 0 1-.61-1.359c0-.672.248-1.188.744-1.547.5-.36 1.221-.541 2.162-.545h.78v-.363c0-.293-.076-.528-.229-.703-.148-.176-.385-.264-.709-.264-.285 0-.51.068-.674.205-.16.137-.24.324-.24.562h-1.693c0-.367.113-.707.34-1.019.226-.313.546-.557.961-.733a3.476 3.476 0 0 1 1.394-.269c.781 0 1.4.197 1.858.592.46.39.691.941.691 1.652v2.748c.004.602.088 1.057.252 1.365v.1h-1.711Zm-1.4-1.178c.25 0 .48-.054.691-.164.211-.113.367-.263.469-.451v-1.09h-.633c-.848 0-1.299.293-1.354.879l-.005.1c0 .211.074.384.222.521.149.137.352.205.61.205Zm5.748-5.162.052.709c.45-.551 1.057-.826 1.823-.826.816 0 1.377.322 1.681.967.446-.645 1.08-.967 1.905-.967.687 0 1.199.201 1.535.603.336.399.504 1 .504 1.805V276h-1.7v-4.043c0-.359-.07-.621-.211-.785-.14-.168-.388-.252-.744-.252-.508 0-.859.242-1.054.726l.005 4.354h-1.693v-4.037c0-.367-.072-.633-.217-.797-.144-.164-.39-.246-.738-.246-.48 0-.828.199-1.043.598V276h-1.693v-6.34h1.588Z" fill="#fff"/><path d="m86.83 291.311.164 1.125.24-1.014 1.688-5.953h.95l1.646 5.953.234 1.031.182-1.148 1.324-5.836h1.13L92.32 294h-1.025l-1.758-6.217-.135-.65-.134.65L87.445 294H86.42l-2.063-8.531h1.125l1.348 5.842Zm11.578-2.678a3.178 3.178 0 0 0-.533-.041c-.71 0-1.193.303-1.447.908v4.5h-1.084v-6.34h1.054l.018.733c.356-.567.86-.85 1.512-.85.21 0 .37.027.48.082v1.008Zm2.18 5.367h-1.084v-6.34h1.084V294Zm-1.172-8.021c0-.176.053-.325.158-.446.11-.121.27-.181.481-.181.211 0 .371.06.48.181.11.121.164.27.164.446a.616.616 0 0 1-.164.439c-.109.117-.269.176-.48.176-.211 0-.371-.059-.48-.176a.633.633 0 0 1-.159-.439Zm4.383.146v1.535h1.183v.838h-1.183v3.932c0 .254.053.445.158.574.105.125.285.187.539.187.125 0 .297-.023.516-.07V294a3.15 3.15 0 0 1-.832.117c-.485 0-.85-.146-1.096-.439-.246-.293-.369-.709-.369-1.248v-3.932h-1.154v-.838h1.154v-1.535h1.084Zm5.086 7.992c-.86 0-1.559-.281-2.098-.844-.539-.566-.808-1.322-.808-2.267v-.199c0-.629.119-1.19.357-1.682a2.81 2.81 0 0 1 1.008-1.16 2.535 2.535 0 0 1 1.406-.422c.824 0 1.465.271 1.922.814.457.543.685 1.321.685 2.332v.452h-4.295c.016.625.198 1.13.545 1.517.352.383.797.574 1.336.574.383 0 .707-.078.973-.234.266-.156.498-.363.697-.621l.662.516c-.531.816-1.328 1.224-2.39 1.224Zm-.135-5.683c-.438 0-.805.16-1.102.48-.296.316-.48.762-.55 1.336h3.175v-.082c-.031-.551-.179-.977-.445-1.277-.266-.305-.625-.457-1.078-.457ZM119.508 294c-.063-.125-.113-.348-.153-.668-.503.523-1.105.785-1.804.785-.625 0-1.139-.176-1.541-.527a1.728 1.728 0 0 1-.598-1.348c0-.66.25-1.172.75-1.535.504-.367 1.211-.551 2.121-.551h1.055v-.498c0-.379-.113-.679-.34-.902-.227-.227-.56-.34-1.002-.34-.387 0-.711.098-.973.293-.261.195-.392.432-.392.709h-1.09c0-.316.111-.621.334-.914.227-.297.531-.531.914-.703a3.097 3.097 0 0 1 1.272-.258c.73 0 1.302.184 1.716.551.414.363.629.865.645 1.506v2.918c0 .582.074 1.044.223 1.388V294h-1.137Zm-1.799-.826c.34 0 .662-.088.967-.264.304-.176.525-.404.662-.685v-1.301h-.85c-1.328 0-1.992.388-1.992 1.166 0 .34.113.605.34.797.226.191.518.287.873.287Zm8.408-5.514.029.703c.465-.547 1.092-.82 1.881-.82.887 0 1.491.34 1.811 1.019a2.42 2.42 0 0 1 .82-.738c.34-.187.74-.281 1.201-.281 1.391 0 2.098.736 2.121 2.209V294h-1.084v-4.184c0-.453-.103-.791-.31-1.013-.207-.227-.555-.34-1.043-.34-.402 0-.736.121-1.002.363-.266.238-.42.561-.463.967V294h-1.09v-4.154c0-.922-.451-1.383-1.353-1.383-.711 0-1.197.303-1.459.908V294h-1.084v-6.34h1.025Zm12.135 6.457c-.859 0-1.559-.281-2.098-.844-.539-.566-.808-1.322-.808-2.267v-.199c0-.629.119-1.19.357-1.682a2.81 2.81 0 0 1 1.008-1.16 2.537 2.537 0 0 1 1.406-.422c.824 0 1.465.271 1.922.814.457.543.686 1.321.686 2.332v.452h-4.295c.015.625.197 1.13.545 1.517.351.383.796.574 1.336.574.382 0 .707-.078.972-.234.266-.156.498-.363.697-.621l.663.516c-.532.816-1.329 1.224-2.391 1.224Zm-.135-5.683c-.437 0-.805.16-1.101.48-.297.316-.481.762-.551 1.336h3.176v-.082c-.032-.551-.18-.977-.446-1.277-.265-.305-.625-.457-1.078-.457Zm7.559 3.884a.788.788 0 0 0-.334-.679c-.219-.164-.604-.305-1.154-.422-.547-.117-.983-.258-1.307-.422-.32-.164-.559-.359-.715-.586a1.418 1.418 0 0 1-.228-.809c0-.519.218-.959.656-1.318.441-.359 1.004-.539 1.687-.539.719 0 1.301.186 1.746.557.45.371.674.845.674 1.423h-1.09c0-.296-.127-.552-.381-.767-.25-.215-.566-.322-.949-.322-.394 0-.703.086-.926.257a.814.814 0 0 0-.334.674c0 .262.104.459.311.592.207.133.58.26 1.119.381.543.121.983.266 1.319.433.335.168.584.372.744.61.164.234.246.521.246.861 0 .567-.227 1.022-.68 1.365-.453.34-1.041.51-1.764.51-.507 0-.957-.09-1.347-.269a2.22 2.22 0 0 1-.92-.75 1.84 1.84 0 0 1-.328-1.049h1.084c.019.363.164.652.433.867.274.211.633.316 1.078.316.411 0 .739-.082.985-.246.25-.168.375-.39.375-.668Zm6.187 0c0-.293-.111-.519-.334-.679-.218-.164-.603-.305-1.154-.422-.547-.117-.982-.258-1.307-.422-.32-.164-.558-.359-.714-.586a1.411 1.411 0 0 1-.229-.809c0-.519.219-.959.656-1.318.442-.359 1.004-.539 1.688-.539.719 0 1.301.186 1.746.557.449.371.674.845.674 1.423h-1.09c0-.296-.127-.552-.381-.767-.25-.215-.566-.322-.949-.322-.395 0-.703.086-.926.257a.812.812 0 0 0-.334.674c0 .262.103.459.311.592.207.133.58.26 1.119.381.543.121.982.266 1.318.433.336.168.584.372.744.61.164.234.246.521.246.861 0 .567-.226 1.022-.679 1.365-.454.34-1.041.51-1.764.51-.508 0-.957-.09-1.348-.269-.39-.18-.697-.43-.92-.75a1.847 1.847 0 0 1-.328-1.049h1.084c.02.363.164.652.434.867.273.211.633.316 1.078.316.41 0 .738-.082.984-.246.25-.168.375-.39.375-.668Zm6.41 1.682c-.062-.125-.113-.348-.152-.668-.504.523-1.105.785-1.805.785-.625 0-1.138-.176-1.541-.527a1.73 1.73 0 0 1-.597-1.348c0-.66.25-1.172.75-1.535.504-.367 1.211-.551 2.121-.551h1.055v-.498c0-.379-.114-.679-.34-.902-.227-.227-.561-.34-1.002-.34-.387 0-.711.098-.973.293-.262.195-.393.432-.393.709h-1.089c0-.316.111-.621.334-.914a2.31 2.31 0 0 1 .914-.703c.386-.172.81-.258 1.271-.258.731 0 1.303.184 1.717.551.414.363.629.865.645 1.506v2.918c0 .582.074 1.044.222 1.388V294h-1.137Zm-1.798-.826a1.9 1.9 0 0 0 .966-.264c.305-.176.526-.404.663-.685v-1.301h-.85c-1.328 0-1.992.388-1.992 1.166 0 .34.113.605.34.797.226.191.517.287.873.287Zm4.154-2.397c0-.988.228-1.773.685-2.355.457-.586 1.063-.879 1.817-.879.773 0 1.377.273 1.81.82l.053-.703h.99v6.188c0 .82-.244 1.466-.732 1.939-.484.473-1.137.709-1.957.709-.457 0-.904-.098-1.342-.293-.437-.195-.771-.463-1.002-.803l.563-.65c.465.574 1.033.861 1.705.861.527 0 .937-.148 1.23-.445.297-.297.446-.715.446-1.254v-.545c-.434.5-1.026.75-1.776.75-.742 0-1.344-.299-1.805-.896-.457-.598-.685-1.412-.685-2.444Zm1.09.123c0 .715.146 1.278.439 1.688.293.406.703.609 1.231.609.683 0 1.185-.31 1.506-.931v-2.895c-.333-.605-.831-.908-1.495-.908-.527 0-.939.205-1.236.615-.297.41-.445 1.018-.445 1.822Zm8.537 3.217c-.86 0-1.559-.281-2.098-.844-.539-.566-.808-1.322-.808-2.267v-.199c0-.629.119-1.19.357-1.682a2.81 2.81 0 0 1 1.008-1.16 2.535 2.535 0 0 1 1.406-.422c.824 0 1.465.271 1.922.814.457.543.686 1.321.686 2.332v.452h-4.295c.015.625.197 1.13.545 1.517.351.383.796.574 1.335.574.383 0 .707-.078.973-.234.266-.156.498-.363.697-.621l.662.516c-.531.816-1.328 1.224-2.39 1.224Zm-.135-5.683c-.437 0-.805.16-1.101.48-.297.316-.481.762-.551 1.336h3.176v-.082c-.032-.551-.18-.977-.446-1.277-.265-.305-.625-.457-1.078-.457Z" fill="#AFC0D1"/><path d="M11 12c0-6.627 5.373-12 12-12h216c6.627 0 12 5.373 12 12v20H11V12Z" fill="#22303F"/><path d="M31.547 20h-1.131l-4.295-6.574V20h-1.13v-8.531h1.13l4.307 6.603V11.47h1.119V20Zm4.459.117c-.86 0-1.559-.281-2.098-.844-.539-.566-.808-1.322-.808-2.267v-.2c0-.628.119-1.189.357-1.681a2.816 2.816 0 0 1 1.008-1.16 2.536 2.536 0 0 1 1.406-.422c.824 0 1.465.272 1.922.814.457.543.685 1.32.685 2.332v.452h-4.294c.015.625.197 1.13.544 1.517.352.383.797.574 1.337.574.382 0 .707-.078.972-.234.266-.156.498-.363.697-.621l.663.516c-.532.816-1.329 1.224-2.391 1.224Zm-.135-5.683c-.437 0-.805.16-1.102.48-.296.316-.48.762-.55 1.336h3.175v-.082c-.03-.55-.18-.977-.445-1.277-.265-.305-.625-.457-1.078-.457Zm6.498 5.683c-.86 0-1.559-.281-2.097-.844-.54-.566-.81-1.322-.81-2.267v-.2c0-.628.12-1.189.358-1.681a2.815 2.815 0 0 1 1.008-1.16 2.536 2.536 0 0 1 1.406-.422c.825 0 1.465.272 1.922.814.457.543.686 1.32.686 2.332v.452h-4.295c.016.625.197 1.13.545 1.517.351.383.797.574 1.336.574.383 0 .707-.078.972-.234.266-.156.498-.363.698-.621l.662.516c-.532.816-1.328 1.224-2.39 1.224Zm-.135-5.683c-.437 0-.804.16-1.101.48-.297.316-.48.762-.551 1.336h3.176v-.082c-.031-.55-.18-.977-.446-1.277-.265-.305-.624-.457-1.078-.457Zm3.604 2.343c0-.972.23-1.754.691-2.343.461-.594 1.065-.891 1.81-.891.743 0 1.33.254 1.764.762V11h1.084v9h-.996l-.052-.68c-.434.532-1.037.797-1.81.797-.735 0-1.335-.3-1.8-.902-.46-.602-.691-1.387-.691-2.356v-.082Zm1.084.123c0 .72.148 1.282.445 1.688.297.406.707.61 1.23.61.688 0 1.19-.31 1.506-.927V15.36c-.324-.597-.822-.896-1.494-.896-.53 0-.945.205-1.242.615-.297.41-.445 1.018-.445 1.822Zm10.014-2.472c.48-.59 1.105-.885 1.874-.885 1.34 0 2.016.756 2.028 2.268V20h-1.084v-4.195c-.004-.457-.11-.795-.316-1.014-.204-.219-.522-.328-.956-.328-.351 0-.66.094-.925.281a1.91 1.91 0 0 0-.622.738V20h-1.083v-9h1.084v3.428Zm8.156 5.69c-.86 0-1.559-.282-2.098-.845-.539-.566-.809-1.322-.809-2.267v-.2c0-.628.12-1.189.358-1.681a2.815 2.815 0 0 1 1.008-1.16 2.535 2.535 0 0 1 1.406-.422c.824 0 1.465.272 1.922.814.457.543.685 1.32.685 2.332v.452H63.27c.015.625.197 1.13.544 1.517.352.383.797.574 1.336.574.383 0 .707-.078.973-.234.266-.156.498-.363.697-.621l.662.516c-.53.816-1.328 1.224-2.39 1.224Zm-.135-5.684c-.438 0-.805.16-1.101.48-.297.316-.481.762-.551 1.336h3.176v-.082c-.032-.55-.18-.977-.446-1.277-.266-.305-.625-.457-1.078-.457ZM70.002 20h-1.084v-9h1.084v9Zm7.096-3.1c0 .965-.221 1.743-.662 2.332-.442.59-1.04.885-1.793.885-.77 0-1.375-.244-1.817-.732v3.052h-1.084V13.66h.99l.053.703c.442-.547 1.055-.82 1.84-.82.762 0 1.363.287 1.805.861.445.575.668 1.373.668 2.397v.1Zm-1.084-.123c0-.715-.153-1.279-.457-1.693-.305-.414-.723-.621-1.254-.621-.656 0-1.149.29-1.477.873v3.03c.324.577.82.866 1.489.866.519 0 .931-.205 1.236-.615.308-.414.463-1.027.463-1.84Zm3.738.82c.008-.464.06-.831.158-1.1.098-.27.297-.57.598-.897l.767-.791c.328-.371.493-.77.493-1.196 0-.41-.108-.73-.323-.96-.214-.235-.527-.352-.937-.352-.399 0-.719.105-.961.316-.242.211-.363.494-.363.85H78.1c.007-.633.232-1.143.673-1.53.446-.39 1.024-.585 1.735-.585.738 0 1.312.199 1.723.597.413.395.62.938.62 1.63 0 .683-.316 1.356-.949 2.02l-.638.633c-.285.317-.428.772-.428 1.366h-1.084Zm-.047 1.858c0-.176.053-.322.158-.44.11-.12.27-.181.48-.181.212 0 .372.06.481.182a.62.62 0 0 1 .164.44.619.619 0 0 1-.164.439c-.11.113-.27.17-.48.17-.211 0-.371-.057-.48-.17a.632.632 0 0 1-.159-.44Zm13.87-2.162c-.106.902-.44 1.6-1.003 2.092-.558.488-1.303.732-2.232.732-1.008 0-1.817-.361-2.426-1.084-.605-.723-.908-1.69-.908-2.9v-.82c0-.793.14-1.49.422-2.092.285-.602.687-1.063 1.207-1.383.52-.324 1.12-.486 1.804-.486.907 0 1.633.253 2.18.761.547.504.865 1.203.955 2.098h-1.13c-.098-.68-.311-1.172-.64-1.477-.323-.304-.779-.457-1.365-.457-.718 0-1.283.266-1.693.797-.406.531-.61 1.287-.61 2.268v.826c0 .926.194 1.662.58 2.209.388.547.928.82 1.624.82.625 0 1.103-.14 1.435-.422.336-.285.559-.779.668-1.482h1.131Zm1.083-.521c0-.622.121-1.18.364-1.676a2.758 2.758 0 0 1 1.019-1.149 2.79 2.79 0 0 1 1.494-.404c.863 0 1.56.299 2.092.897.535.597.803 1.392.803 2.384v.076c0 .618-.119 1.172-.358 1.665-.234.488-.572.869-1.013 1.142-.438.273-.942.41-1.512.41-.86 0-1.557-.299-2.092-.896-.531-.598-.797-1.389-.797-2.373v-.076Zm1.09.128c0 .704.162 1.268.486 1.694.329.425.766.638 1.313.638.55 0 .988-.214 1.312-.644.325-.434.487-1.04.487-1.817 0-.695-.166-1.257-.498-1.687a1.564 1.564 0 0 0-1.313-.65c-.535 0-.967.213-1.295.638-.328.426-.492 1.035-.492 1.828Zm7.066-3.24.036.797c.484-.61 1.117-.914 1.898-.914 1.34 0 2.016.756 2.027 2.268V20h-1.084v-4.195c-.003-.457-.109-.795-.316-1.014-.203-.219-.521-.328-.955-.328-.352 0-.66.094-.926.281a1.911 1.911 0 0 0-.621.738V20h-1.084v-6.34h1.025Zm7.067-1.535v1.535h1.183v.838h-1.183v3.932c0 .254.053.445.158.574.106.125.285.187.539.187.125 0 .297-.023.516-.07V20a3.146 3.146 0 0 1-.832.117c-.485 0-.85-.146-1.096-.44-.246-.292-.369-.708-.369-1.247v-3.932h-1.154v-.838h1.154v-1.535h1.084ZM116.25 20c-.062-.125-.113-.348-.152-.668-.504.523-1.106.785-1.805.785-.625 0-1.139-.176-1.541-.527a1.73 1.73 0 0 1-.598-1.348c0-.66.25-1.172.75-1.535.504-.367 1.211-.55 2.121-.55h1.055v-.499c0-.379-.113-.68-.34-.902-.226-.227-.56-.34-1.002-.34-.386 0-.711.098-.972.293-.262.195-.393.432-.393.709h-1.09c0-.316.112-.621.334-.914.227-.297.531-.531.914-.703a3.098 3.098 0 0 1 1.272-.258c.73 0 1.302.184 1.717.55.414.364.628.866.644 1.507v2.918c0 .582.074 1.044.223 1.388V20h-1.137Zm-1.799-.826c.34 0 .662-.088.967-.264.305-.176.525-.404.662-.685v-1.301h-.85c-1.328 0-1.992.389-1.992 1.166 0 .34.114.605.34.797.227.191.518.287.873.287Zm6.955.058c.387 0 .725-.117 1.014-.351.289-.235.449-.527.48-.879h1.026c-.02.363-.145.709-.375 1.037-.231.328-.539.59-.926.785a2.646 2.646 0 0 1-1.219.293c-.863 0-1.551-.287-2.062-.861-.508-.578-.762-1.367-.762-2.367v-.182c0-.617.113-1.166.34-1.647.226-.48.551-.853.973-1.119.425-.265.927-.398 1.505-.398.711 0 1.301.213 1.77.639.473.425.725.978.756 1.658H122.9a1.477 1.477 0 0 0-.468-1.008 1.435 1.435 0 0 0-1.032-.398c-.55 0-.978.199-1.283.597-.301.395-.451.967-.451 1.717v.205c0 .73.15 1.293.451 1.688.301.394.731.591 1.289.591Zm5.209-7.107v1.535h1.184v.838h-1.184v3.932c0 .254.053.445.158.574.106.125.286.187.539.187.126 0 .297-.023.516-.07V20a3.14 3.14 0 0 1-.832.117c-.484 0-.85-.146-1.096-.44-.246-.292-.369-.708-.369-1.247v-3.932h-1.154v-.838h1.154v-1.535h1.084Zm9.346 7.248c-.422.496-1.041.744-1.857.744-.676 0-1.192-.195-1.547-.586-.352-.394-.53-.976-.534-1.746V13.66h1.084v4.096c0 .96.391 1.441 1.172 1.441.828 0 1.379-.308 1.653-.925V13.66h1.084V20h-1.032l-.023-.627Zm6.398-1.055c0-.293-.111-.52-.334-.68-.218-.163-.603-.304-1.154-.421-.547-.117-.982-.258-1.307-.422-.32-.164-.558-.36-.714-.586a1.41 1.41 0 0 1-.229-.809c0-.52.219-.959.656-1.318.442-.36 1.004-.539 1.688-.539.719 0 1.301.186 1.746.557.449.37.674.845.674 1.423h-1.09c0-.296-.127-.552-.381-.767-.25-.215-.566-.322-.949-.322-.395 0-.703.086-.926.257a.81.81 0 0 0-.334.674c0 .262.104.46.311.592.207.133.58.26 1.119.38.543.122.982.267 1.318.434.336.168.584.372.744.61.164.234.246.521.246.861a1.63 1.63 0 0 1-.679 1.365c-.453.34-1.041.51-1.764.51-.508 0-.957-.09-1.348-.27-.39-.179-.697-.429-.92-.75a1.845 1.845 0 0 1-.328-1.048h1.084c.02.363.164.652.434.867.273.211.633.316 1.078.316.41 0 .738-.082.984-.246.25-.168.375-.39.375-.668Zm3.709-.726h-.978l-.076-6.123h1.136l-.082 6.123Zm-1.095 1.863a.63.63 0 0 1 .158-.44c.109-.12.269-.181.48-.181.211 0 .371.06.481.182a.62.62 0 0 1 .164.44.62.62 0 0 1-.164.439c-.11.113-.27.17-.481.17-.211 0-.371-.057-.48-.17a.63.63 0 0 1-.158-.44Z" fill="#AFC0D1"/></g></symbol><symbol id="whatsapp"><g style="enable-background:new 0 0 512 512"><path d="M256.064 0h-.128C114.784 0 0 114.816 0 256c0 56 18.048 107.904 48.736 150.048l-31.904 95.104 98.4-31.456C155.712 496.512 204 512 256.064 512 397.216 512 512 397.152 512 256S397.216 0 256.064 0zm148.96 361.504c-6.176 17.44-30.688 31.904-50.24 36.128-13.376 2.848-30.848 5.12-89.664-19.264-75.232-31.168-123.68-107.616-127.456-112.576-3.616-4.96-30.4-40.48-30.4-77.216s18.656-54.624 26.176-62.304c6.176-6.304 16.384-9.184 26.176-9.184 3.168 0 6.016.16 8.576.288 7.52.32 11.296.768 16.256 12.64 6.176 14.88 21.216 51.616 23.008 55.392 1.824 3.776 3.648 8.896 1.088 13.856-2.4 5.12-4.512 7.392-8.288 11.744-3.776 4.352-7.36 7.68-11.136 12.352-3.456 4.064-7.36 8.416-3.008 15.936 4.352 7.36 19.392 31.904 41.536 51.616 28.576 25.44 51.744 33.568 60.032 37.024 6.176 2.56 13.536 1.952 18.048-2.848 5.728-6.176 12.8-16.416 20-26.496 5.12-7.232 11.584-8.128 18.368-5.568 6.912 2.4 43.488 20.48 51.008 24.224 7.52 3.776 12.48 5.568 14.304 8.736 1.792 3.168 1.792 18.048-4.384 35.52z" data-original="#000000" class="active-path" data-old_color="#000000" fill="#FFF"/></g></symbol></svg>